<svg xmlns="http://www.w3.org/2000/svg" viewBox="0 0 750 500"><g id="freepik--background-simple--inject-43"><path d="M673.9,209.62c-37.33-32.45-82-54.48-126.28-75.75C498,110,446.15,86.21,393,71.52a402,402,0,0,0-54-11.18c-80.13-10.7-156.82,43.54-212.3,95.25A592.08,592.08,0,0,0,65.19,222.3c-13.67,17.37-30,35.94-35.75,58.18-6.77,26.12,7.38,48,21.49,68.8C62.24,366,74,381.66,88.16,396.07a302.87,302.87,0,0,0,117.35,73.82c82.12,28.11,173.3,17.45,257.66,7.26q7.14-.86,14.26-1.79C529.52,468.57,581.27,464,630.87,445c72-27.55,120.5-108.43,84.46-183C705.47,241.61,691,224.47,673.9,209.62Z" style="fill:#407BFF"></path><path d="M673.9,209.62c-37.33-32.45-82-54.48-126.28-75.75C498,110,446.15,86.21,393,71.52a402,402,0,0,0-54-11.18c-80.13-10.7-156.82,43.54-212.3,95.25A592.08,592.08,0,0,0,65.19,222.3c-13.67,17.37-30,35.94-35.75,58.18-6.77,26.12,7.38,48,21.49,68.8C62.24,366,74,381.66,88.16,396.07a302.87,302.87,0,0,0,117.35,73.82c82.12,28.11,173.3,17.45,257.66,7.26q7.14-.86,14.26-1.79C529.52,468.57,581.27,464,630.87,445c72-27.55,120.5-108.43,84.46-183C705.47,241.61,691,224.47,673.9,209.62Z" style="fill:#fff;opacity:0.7000000000000001"></path></g><g id="freepik--Floor--inject-43"><line x1="42.53" y1="462.12" x2="729.2" y2="462.12" style="fill:none;stroke:#263238;stroke-linecap:round;stroke-linejoin:round"></line></g><g id="freepik--Clock--inject-43"><circle cx="109.32" cy="131.04" r="33.85" style="fill:none;stroke:#263238;stroke-linecap:round;stroke-linejoin:round"></circle><circle cx="109.32" cy="131.04" r="29.94" transform="translate(-27.18 28.62) rotate(-13.28)" style="fill:none;stroke:#263238;stroke-linecap:round;stroke-linejoin:round"></circle><circle cx="109.32" cy="131.04" r="2.86" style="fill:#263238;stroke:#263238;stroke-linecap:round;stroke-linejoin:round"></circle><polyline points="119.74 136.13 109.32 131.04 91.94 150.03" style="fill:none;stroke:#263238;stroke-linecap:round;stroke-linejoin:round"></polyline></g><g id="freepik--Picture--inject-43"><rect x="628.28" y="96.05" width="84.56" height="105.34" style="fill:none;stroke:#263238;stroke-linecap:round;stroke-linejoin:round"></rect><rect x="631.05" y="99.5" width="79.04" height="98.46" style="fill:none;stroke:#263238;stroke-linecap:round;stroke-linejoin:round"></rect><rect x="654.32" y="128.48" width="32.5" height="40.48" style="fill:none;stroke:#263238;stroke-linecap:round;stroke-linejoin:round"></rect></g><g id="freepik--Lamps--inject-43"><line x1="391.59" y1="39.12" x2="391.59" y2="7.5" style="fill:none;stroke:#263238;stroke-linecap:round;stroke-linejoin:round"></line><polygon points="417.7 56.03 365.49 56.03 381.15 36.18 402.04 36.18 417.7 56.03" style="fill:#263238"></polygon><line x1="676.08" y1="39.12" x2="676.08" y2="7.5" style="fill:none;stroke:#263238;stroke-linecap:round;stroke-linejoin:round"></line><polygon points="702.18 56.03 649.97 56.03 665.63 36.18 686.52 36.18 702.18 56.03" style="fill:#263238"></polygon><line x1="107.11" y1="39.12" x2="107.11" y2="7.5" style="fill:none;stroke:#263238;stroke-linecap:round;stroke-linejoin:round"></line><polygon points="133.22 56.03 81.01 56.03 96.67 36.18 117.55 36.18 133.22 56.03" style="fill:#263238"></polygon></g><g id="freepik--Board--inject-43"><rect x="256.32" y="105.64" width="247.36" height="169.7" style="fill:#263238;stroke:#263238;stroke-linecap:round;stroke-linejoin:round"></rect><rect x="260.25" y="109.73" width="239.51" height="161.51" style="fill:#fff;stroke:#263238;stroke-linecap:round;stroke-linejoin:round"></rect><rect x="346.02" y="150.64" width="35.2" height="28.22" style="fill:#407BFF"></rect><rect x="382.43" y="179.32" width="35.2" height="28.22" style="fill:#407BFF"></rect><rect x="346.02" y="235.76" width="35.2" height="28.22" style="fill:#407BFF"></rect><rect x="419.31" y="122.87" width="35.2" height="28.22" style="fill:#407BFF"></rect><line x1="272.88" y1="126.97" x2="272.88" y2="263.99" style="fill:none;stroke:#263238;stroke-linecap:round;stroke-linejoin:round"></line><line x1="309.14" y1="126.97" x2="309.14" y2="263.99" style="fill:none;stroke:#263238;stroke-linecap:round;stroke-linejoin:round"></line><line x1="345.41" y1="126.97" x2="345.41" y2="263.99" style="fill:none;stroke:#263238;stroke-linecap:round;stroke-linejoin:round"></line><line x1="381.67" y1="126.97" x2="381.67" y2="263.99" style="fill:none;stroke:#263238;stroke-linecap:round;stroke-linejoin:round"></line><line x1="417.94" y1="126.97" x2="417.94" y2="263.99" style="fill:none;stroke:#263238;stroke-linecap:round;stroke-linejoin:round"></line><line x1="454.2" y1="126.97" x2="454.2" y2="263.99" style="fill:none;stroke:#263238;stroke-linecap:round;stroke-linejoin:round"></line><line x1="490.47" y1="126.97" x2="490.47" y2="263.99" style="fill:none;stroke:#263238;stroke-linecap:round;stroke-linejoin:round"></line><line x1="273.79" y1="150.64" x2="490.93" y2="150.64" style="fill:none;stroke:#263238;stroke-linecap:round;stroke-linejoin:round"></line><line x1="273.79" y1="178.86" x2="490.93" y2="178.86" style="fill:none;stroke:#263238;stroke-linecap:round;stroke-linejoin:round"></line><line x1="273.79" y1="207.09" x2="490.93" y2="207.09" style="fill:none;stroke:#263238;stroke-linecap:round;stroke-linejoin:round"></line><line x1="273.79" y1="235.31" x2="490.93" y2="235.31" style="fill:none;stroke:#263238;stroke-linecap:round;stroke-linejoin:round"></line><line x1="351.17" y1="155.65" x2="373.02" y2="155.65" style="fill:none;stroke:#263238;stroke-linecap:round;stroke-linejoin:round"></line><line x1="351.17" y1="159.29" x2="373.02" y2="159.29" style="fill:none;stroke:#263238;stroke-linecap:round;stroke-linejoin:round"></line><line x1="351.17" y1="162.93" x2="373.02" y2="162.93" style="fill:none;stroke:#263238;stroke-linecap:round;stroke-linejoin:round"></line><line x1="351.17" y1="166.57" x2="373.02" y2="166.57" style="fill:none;stroke:#263238;stroke-linecap:round;stroke-linejoin:round"></line><line x1="351.17" y1="170.21" x2="373.02" y2="170.21" style="fill:none;stroke:#263238;stroke-linecap:round;stroke-linejoin:round"></line><line x1="389.41" y1="186.15" x2="411.26" y2="186.15" style="fill:none;stroke:#263238;stroke-linecap:round;stroke-linejoin:round"></line><line x1="389.41" y1="189.79" x2="411.26" y2="189.79" style="fill:none;stroke:#263238;stroke-linecap:round;stroke-linejoin:round"></line><line x1="389.41" y1="193.43" x2="411.26" y2="193.43" style="fill:none;stroke:#263238;stroke-linecap:round;stroke-linejoin:round"></line><line x1="389.41" y1="197.07" x2="411.26" y2="197.07" style="fill:none;stroke:#263238;stroke-linecap:round;stroke-linejoin:round"></line><line x1="389.41" y1="200.71" x2="411.26" y2="200.71" style="fill:none;stroke:#263238;stroke-linecap:round;stroke-linejoin:round"></line><line x1="352.08" y1="242.14" x2="373.93" y2="242.14" style="fill:none;stroke:#263238;stroke-linecap:round;stroke-linejoin:round"></line><line x1="352.08" y1="245.78" x2="373.93" y2="245.78" style="fill:none;stroke:#263238;stroke-linecap:round;stroke-linejoin:round"></line><line x1="352.08" y1="249.42" x2="373.93" y2="249.42" style="fill:none;stroke:#263238;stroke-linecap:round;stroke-linejoin:round"></line><line x1="352.08" y1="253.06" x2="373.93" y2="253.06" style="fill:none;stroke:#263238;stroke-linecap:round;stroke-linejoin:round"></line><line x1="352.08" y1="256.7" x2="373.93" y2="256.7" style="fill:none;stroke:#263238;stroke-linecap:round;stroke-linejoin:round"></line><line x1="424.46" y1="130.61" x2="446.31" y2="130.61" style="fill:none;stroke:#263238;stroke-linecap:round;stroke-linejoin:round"></line><line x1="424.46" y1="134.25" x2="446.31" y2="134.25" style="fill:none;stroke:#263238;stroke-linecap:round;stroke-linejoin:round"></line><line x1="424.46" y1="137.89" x2="446.31" y2="137.89" style="fill:none;stroke:#263238;stroke-linecap:round;stroke-linejoin:round"></line><line x1="424.46" y1="141.53" x2="446.31" y2="141.53" style="fill:none;stroke:#263238;stroke-linecap:round;stroke-linejoin:round"></line><line x1="424.46" y1="145.18" x2="446.31" y2="145.18" style="fill:none;stroke:#263238;stroke-linecap:round;stroke-linejoin:round"></line></g><g id="freepik--Chair--inject-43"><rect x="674.81" y="340.5" width="10.67" height="18.95" transform="translate(1360.29 699.94) rotate(180)" style="fill:#263238;stroke:#263238;stroke-linecap:round;stroke-linejoin:round"></rect><rect x="654.39" y="264.92" width="53.17" height="81.34" rx="15.63" transform="translate(1361.94 611.18) rotate(180)" style="fill:#949494;stroke:#263238;stroke-linecap:round;stroke-linejoin:round"></rect><path d="M696.91,458.73a4.52,4.52,0,1,1,4.51,4.51A4.51,4.51,0,0,1,696.91,458.73Z" style="fill:#263238;stroke:#263238;stroke-linecap:round;stroke-linejoin:round"></path><path d="M608.7,458.73a4.52,4.52,0,1,1,4.51,4.51A4.51,4.51,0,0,1,608.7,458.73Z" style="fill:#263238;stroke:#263238;stroke-linecap:round;stroke-linejoin:round"></path><path d="M655.12,458.73c0-2.5.94-4.52,2.1-4.52s2.1,2,2.1,4.52-.94,4.51-2.1,4.51S655.12,461.22,655.12,458.73Z" style="fill:#263238;stroke:#263238;stroke-linecap:round;stroke-linejoin:round"></path><polygon points="653.11 434.22 653.11 369.5 661.97 369.5 661.97 434.49 705.71 451.79 705.71 456.13 699.35 456.13 699.35 452.45 657.21 443.76 615.06 452.45 615.06 456.13 608.71 456.13 608.71 451.79 653.11 434.22" style="fill:#263238;stroke:#263238;stroke-linecap:round;stroke-linejoin:round"></polygon><polygon points="659.44 456.12 655 456.12 654.05 435.11 660.39 435.11 659.44 456.12" style="fill:#263238;stroke:#263238;stroke-linecap:round;stroke-linejoin:round"></polygon><rect x="646.29" y="367.03" width="22.53" height="13.38" transform="translate(1315.11 747.45) rotate(180)" style="fill:#263238;stroke:#263238;stroke-linecap:round;stroke-linejoin:round"></rect><rect x="618.12" y="354.71" width="80.98" height="17.25" rx="5.91" transform="translate(1317.22 726.67) rotate(180)" style="fill:#949494;stroke:#263238;stroke-linecap:round;stroke-linejoin:round"></rect></g><g id="freepik--character-4--inject-43"><path d="M589.72,440.64a34,34,0,0,1-9.56,8.91c-5.65,3.25-14.33,4.56-14.33,6.29s.65,4.78,7.16,5.65,34.75,1.3,38.44.43.22-19.11.22-19.11S594.49,443.68,589.72,440.64Z" style="fill:#fff;stroke:#263238;stroke-linecap:round;stroke-linejoin:round"></path><path d="M573,461.49c6.52.87,34.75,1.3,38.44.43.94-.22,1.42-1.57,1.6-3.47-7.87.25-23.22.48-32.43,0-12.38-.65-14.77-2.61-14.77-2.61C565.83,457.58,566.48,460.62,573,461.49Z" style="fill:#fff;stroke:#263238;stroke-linecap:round;stroke-linejoin:round"></path><path d="M570.17,270.82s1.74,25.63,3.26,36.49,7.17,55.15,10.86,66.66,7.6,61,7.6,61-4.13,1.52-3.91,3.25.43,4.35.43,4.35,8.47,4.56,13.47,4.56S613.17,445,613.17,445s-1.3-19.33-2-34.53-6.94-79.92-6.94-79.92L603,266.05Z" style="fill:#263238;stroke:#263238;stroke-linecap:round;stroke-linejoin:round"></path><path d="M606.87,445.42s.44,4.13-10.42,7.82-12.16,7.6-10.86,10.86,23.89,3.25,32.36,1.95,12.81-1.74,13.46-3.47-1.74-15-1.74-15Z" style="fill:#fff;stroke:#263238;stroke-linecap:round;stroke-linejoin:round"></path><path d="M631.41,462.58a7.47,7.47,0,0,0,.06-2.33c-3,.55-7,1.3-12.22,2.33-11.6,2.25-26.9.92-34,.08a5.65,5.65,0,0,0,.37,1.44c1.3,3.25,23.89,3.25,32.36,1.95S630.76,464.31,631.41,462.58Z" style="fill:#fff;stroke:#263238;stroke-linecap:round;stroke-linejoin:round"></path><path d="M578,277.12l6.3,7.6s4.77,52.55,6.51,66.24,10,62.54,10,62.54L606,439.56l-1.3,3.25a9.81,9.81,0,0,0,0,4.35c.22.87-.22,1.52,8,2.82a60.38,60.38,0,0,0,16.51,0,17.5,17.5,0,0,0,1.08-6.08,37.19,37.19,0,0,0-.65-8.47c-.65-3.47,0-21.93-4.77-41.69s-8.26-42.57-8.26-50.17.22-52.12.44-53,4.34-3.7,4.56-11.73-.87-11.08-.87-11.08H578.42" style="fill:#263238;stroke:#263238;stroke-linecap:round;stroke-linejoin:round"></path><path d="M577.77,169.63S568,194,567.35,210s0,38.87.22,39.74-2.39,19.11-.87,21.93a3.48,3.48,0,0,0,4.12,2s47.56.65,49.73.21,2.61-3.25,3-5.43-1.3-28-1.3-31.92,1.3-47.56-4.13-59.72-18.89-22.15-20.63-22.58S581.68,158.55,577.77,169.63Z" style="fill:#407BFF;stroke:#263238;stroke-linecap:round;stroke-linejoin:round"></path><path d="M554,121.8s-1.66,8-1.17,8.64,2.16,3.82,2.16,3.82l-4.32,11.8,5.16,1.49,7.31,12.63L574.45,157l3.33,15.12s-.5,5.48,2,4,4.65-3.16,9.47-11.47,9.63-9.63,9.63-9.63-6-8-7.14-10.47-.5-6.64-2.49-16.78-8.81-12.29-18.11-12.29S554.85,117.31,554,121.8Z" style="fill:#fff;stroke:#263238;stroke-linecap:round;stroke-linejoin:round"></path><path d="M558.67,112.33s-7.48,1.66-8.81,3.16.67,6.14,2.5,7.14S566,121,565.81,121.8s-2,3,0,3.82,10,3,10,3l-2,15.29s-9.8-.5-12.13,0-5.81,3.65-5.81,3.65S560.16,160.68,561,162s3.15,1,5.81,0,13.46-8.81,14.62-9.81-1.33-10.8-1.33-10.8.33-8.14.33-9.8,2.16-1.66,3.66-.5,2,5.65,1.66,7.31a7.71,7.71,0,0,1-2.16,3.33s6.31,4.81,7.64,4.81a1.72,1.72,0,0,0,1.83-1.32c.17-.5-.17-14.79-.17-14.79s.34-13.62-1.49-17.94-10.47-5.49-15.95-4.66S558.67,112.33,558.67,112.33Z" style="fill:#263238;stroke:#263238;stroke-linecap:round;stroke-linejoin:round"></path><path d="M560,134.93c.16.91-.11,1.71-.61,1.8s-1-.58-1.19-1.48.12-1.71.62-1.79S559.83,134,560,134.93Z" style="fill:none;stroke:#263238;stroke-linecap:round;stroke-linejoin:round"></path><path d="M556.34,131.6a3.41,3.41,0,0,1,4.66-.33" style="fill:none;stroke:#263238;stroke-linecap:round;stroke-linejoin:round"></path><path d="M561.16,149.88s3.82-1.17,5-3.82" style="fill:none;stroke:#fff;stroke-linecap:round;stroke-linejoin:round"></path><path d="M605.79,225s-9.34,41.48-10.21,43.65S591,279.51,591,279.51l10.21,8.9s1.52-2.39,2.82-8a68.28,68.28,0,0,0,1.52-11.08s14.77-31.48,17.15-35.83.66-7.6.66-8.68S605.79,225,605.79,225Z" style="fill:#fff;stroke:#263238;stroke-linecap:round;stroke-linejoin:round"></path><path d="M599.05,177.66s-2.38,7.6-2.17,11.29,5.21,25.85,5.21,25.85-2.6,2.39-1.73,3.25a21.63,21.63,0,0,1,2.17,3s-2,1.52,0,3.7,1.08,3.25,10.2,3,11.95-.66,13-2.39,2.39-3,1.31-4.78L626,218.92a8.25,8.25,0,0,0,.87-4.34c-.22-2.39-1.74-5.21-1.74-6.3s-.21-15.85-3-27.36-14.76-17.81-16.94-18" style="fill:#407BFF;stroke:#263238;stroke-linecap:round;stroke-linejoin:round"></path></g><g id="freepik--character-3--inject-43"><path d="M471.09,287.13s.35,13.62.35,14.13-1.71,10.22-.86,14.82,7.67,10.9,7.67,10.9l.68-41Z" style="fill:#fff;stroke:#263238;stroke-linecap:round;stroke-linejoin:round"></path><path d="M491.64,193.2s-20,24.36-20.6,27.06-5.83,68.69-5.83,69.32,8.12,3.75,11.45,3.75h4.78s-5.62-45.38-3.12-62.24,8.54-21.65,13.12-28.1S496,191.54,491.64,193.2Z" style="fill:#407BFF;stroke:#263238;stroke-linecap:round;stroke-linejoin:round"></path><path d="M492.69,441.74s-5.21,7.49-8.12,9.16-12.49,5.62-12.91,6.66-.41,3.54.42,3.75,15.19-.21,23.94-.21,14.57.41,15.61-.63.21-14.57-.84-17.27l-1-2.71-15.61-.42Z" style="fill:#263238;stroke:#263238;stroke-linecap:round;stroke-linejoin:round"></path><path d="M512,459.22H471.39c0,1,.18,2,.69,2.09.83.2,15.19-.21,23.94-.21s14.57.41,15.61-.63A2.62,2.62,0,0,0,512,459.22Z" style="fill:#fff;stroke:#263238;stroke-linecap:round;stroke-linejoin:round"></path><path d="M472.7,284.79l2.71,12.7s-.42,33.1,2.91,47.46a141.92,141.92,0,0,1,3.33,28.31s4.58,22.69,6.25,29.14,3.54,33.72,3.54,33.72-1.67,1.25-1.46,2.08.83,6,.83,6,.83,0,7.5.62a53.5,53.5,0,0,0,10.19.21l2.29-1.87a58,58,0,0,0,0-6.66c-.2-3.75-1.45-6.67-1.45-9.16s-1.46-57.45-1.46-57.45l.62-86.18-36.42-2.08Z" style="fill:#fff;stroke:#263238;stroke-linecap:round;stroke-linejoin:round"></path><path d="M513.08,441.32a40.43,40.43,0,0,1-3.74,7.08c-1.88,2.5-9.58,6.87-12.7,8.53a6.25,6.25,0,0,0-3.12,5.21s7.07.21,30.39-.63l10-.41a31,31,0,0,0-.21-5.83c-.41-3.12-.83-11-.83-11Z" style="fill:#263238;stroke:#263238;stroke-linecap:round;stroke-linejoin:round"></path><path d="M523.91,461.51l10-.41a29,29,0,0,0,0-3.37l-39.84,2a6.63,6.63,0,0,0-.55,2.38S500.59,462.35,523.91,461.51Z" style="fill:#fff;stroke:#263238;stroke-linecap:round;stroke-linejoin:round"></path><path d="M486,299.57l7.91,7.7s3.13,30,6.25,47.67,11.24,63.28,11.24,67,1.66,13.33,1.66,13.33-.62.2-.83,1.66S512,444,512,444a34.16,34.16,0,0,0,9.79,2.91,83,83,0,0,0,11.65-.2,63.35,63.35,0,0,0,.84-6.46c0-1.66-.63-8.95-.21-11.86s3.33-17.7,2.5-33.93-5.83-41.42-5.83-41.42l1.66-36.64a54.44,54.44,0,0,0,2.08-20.4c-1-11.24-3.53-15.61-3.53-15.61l-48.71.21" style="fill:#fff;stroke:#263238;stroke-linecap:round;stroke-linejoin:round"></path><path d="M491.64,193.2S475,213.81,473.33,223s-4,61-4,63.07,3.33,2.91,7.29,3.54a95.57,95.57,0,0,0,17.07,1c6.86-.21,13.94-2.5,15-3.75s-1-38.09,2.5-58.28,7.08-31,5-35S498.72,189,491.64,193.2Z" style="fill:#263238;stroke:#263238;stroke-linecap:round;stroke-linejoin:round"></path><path d="M508.5,192.16S496,214,493.73,229.42s-.63,66.82-.63,66.82,0,2.08,9.58,1.87,22.48-2.7,26-4.58,7.49-3.33,7.7-4.37-1.88-4.78-1.88-7.91-1.45-16-1.45-16-.42-56.82-3.54-64.94S514.12,189.87,508.5,192.16Z" style="fill:#407BFF;stroke:#263238;stroke-linecap:round;stroke-linejoin:round"></path><path d="M478.11,153.24s-1.66,6.66-1,8.74a13,13,0,0,1,.63,5.2c-.21.84-5,6.25-4,7.29a32.2,32.2,0,0,0,3.54,2.71s1,11,2.92,11.65,8.74-.62,8.74-.62,2.29,8.53,2.29,10-7.08,17.07-3.12,15.82,19.77-24.15,19.77-24.15-.21-29.35-4.79-36.84S484.78,146.79,478.11,153.24Z" style="fill:#fff;stroke:#263238;stroke-linecap:round;stroke-linejoin:round"></path><path d="M482.9,167.08c0,1.09-.42,2-.93,2s-.94-.89-.94-2,.42-2,.94-2S482.9,166,482.9,167.08Z" style="fill:#263238"></path><path d="M479.78,162.81a2.88,2.88,0,0,1,4.37.63" style="fill:none;stroke:#263238;stroke-linecap:round;stroke-linejoin:round"></path><path d="M480.2,178.84a12.73,12.73,0,0,0,6-2.08" style="fill:none;stroke:#263238;stroke-linecap:round;stroke-linejoin:round"></path><path d="M485.61,138s-10.2,4-11.24,7.7-1.88,8.12-1.88,8.12l9.16,1.88,7.91.62s-.21,1.87,2.08,6.24a76.16,76.16,0,0,1,3.33,7.08s-.62,12.28-1.24,15.82a59,59,0,0,1-2.09,7.7s5.21,1,14.78,2.09S527.86,194,527.86,194s2.5-4.17,2.29-12.49-4.16-20.19-4.58-25,.84-8.12-6.66-13.95S498.1,134.71,485.61,138Z" style="fill:#263238;stroke:#263238;stroke-linecap:round;stroke-linejoin:round"></path><path d="M467.17,261.61a10.19,10.19,0,0,1-1.57-.11l.47-3c1,.15,3.26.14,3.95-.84.94-1.34.2-8.77-.75-10-.36-.42-2.07-.42-3.3-.13l-.69-2.93c.74-.17,4.52-.93,6.27,1.11s2.8,11,.92,13.7C471.18,261.27,468.78,261.61,467.17,261.61Z" style="fill:#fff;stroke:#263238;stroke-linecap:round;stroke-linejoin:round"></path><rect x="449.39" y="241.91" width="17.9" height="23.31" style="fill:#fff;stroke:#263238;stroke-linecap:round;stroke-linejoin:round"></rect><path d="M514.12,205.28s-3.53,7.91-3.74,11.86S514.75,248,514.75,248s-15,3.74-19.15,3.74a50.73,50.73,0,0,1-6.87-.41s-5.62-3.75-7.29-4.79-2.91-.42-5.82-2.71-5.21-2.49-5.42-1.24-.2,2.08,1.88,3.12a19.81,19.81,0,0,1,3.74,2.5s-5,1-6.45,1.25-1.87,2.28-1,3.33,2.29,2.49,2.29,2.49-.21,5,2.5,6,10.2.83,10.2.83,7.91.63,9.16.63,17.07,3.95,28.31,3.95,14.57.63,15.19-1.87-.42-39.34-2.5-50.58-6.87-17.49-10.2-17.9" style="fill:#407BFF;stroke:#263238;stroke-linecap:round;stroke-linejoin:round"></path><path d="M502.52,250.7a44.74,44.74,0,0,1-6.92,1,50.73,50.73,0,0,1-6.87-.41s-5.62-3.75-7.29-4.79-2.91-.42-5.82-2.71-5.21-2.49-5.42-1.24-.2,2.08,1.88,3.12a19.81,19.81,0,0,1,3.74,2.5s-5,1-6.45,1.25-1.87,2.28-1,3.33,2.29,2.49,2.29,2.49-.21,5,2.5,6,10.2.83,10.2.83,7.91.63,9.16.63c.66,0,5.36,1.1,11.31,2.13C501.64,259.82,501.92,254.35,502.52,250.7Z" style="fill:#fff;stroke:#263238;stroke-linecap:round;stroke-linejoin:round"></path></g><g id="freepik--character-1--inject-43"><rect x="147.48" y="340.5" width="10.67" height="18.95" style="fill:#263238;stroke:#263238;stroke-linecap:round;stroke-linejoin:round"></rect><rect x="125.41" y="264.92" width="53.17" height="81.34" rx="15.63" style="fill:#949494;stroke:#263238;stroke-linecap:round;stroke-linejoin:round"></rect><path d="M136.06,458.73a4.52,4.52,0,1,0-4.51,4.51A4.51,4.51,0,0,0,136.06,458.73Z" style="fill:#263238;stroke:#263238;stroke-linecap:round;stroke-linejoin:round"></path><path d="M224.27,458.73a4.52,4.52,0,1,0-4.51,4.51A4.51,4.51,0,0,0,224.27,458.73Z" style="fill:#263238;stroke:#263238;stroke-linecap:round;stroke-linejoin:round"></path><path d="M177.84,458.73c0-2.5-.94-4.52-2.09-4.52s-2.1,2-2.1,4.52.94,4.51,2.1,4.51S177.84,461.22,177.84,458.73Z" style="fill:#263238;stroke:#263238;stroke-linecap:round;stroke-linejoin:round"></path><polygon points="179.85 434.22 179.85 369.5 170.99 369.5 170.99 434.49 127.26 451.79 127.26 456.13 133.61 456.13 133.61 452.45 175.76 443.76 217.9 452.45 217.9 456.13 224.26 456.13 224.26 451.79 179.85 434.22" style="fill:#263238;stroke:#263238;stroke-linecap:round;stroke-linejoin:round"></polygon><polygon points="173.53 456.12 177.96 456.12 178.91 435.11 172.58 435.11 173.53 456.12" style="fill:#263238;stroke:#263238;stroke-linecap:round;stroke-linejoin:round"></polygon><rect x="164.14" y="367.03" width="22.53" height="13.38" style="fill:#263238;stroke:#263238;stroke-linecap:round;stroke-linejoin:round"></rect><rect x="133.86" y="354.71" width="80.98" height="17.25" rx="5.91" style="fill:#949494;stroke:#263238;stroke-linecap:round;stroke-linejoin:round"></rect><path d="M273.9,402.5l6.89,10.22,8.17-.51s15.57-2.81,17.61-3.32,2.81,1.27,1.79,3.32-10.47,11.23-15.06,14-17.62,7.4-18.89,7.66-2.81-2.3-5.62-10.21a89.23,89.23,0,0,0-7.91-15.83Z" style="fill:#fff;stroke:#263238;stroke-linecap:round;stroke-linejoin:round"></path><path d="M308.36,412.21c1-2,.26-3.83-1.79-3.32S289,412.21,289,412.21l-8.17.51a21.23,21.23,0,0,0,1.28,6.89s-11.49,2.81-13.28,4.09c2.81,7.91,4.34,10.46,5.62,10.21s14.29-4.85,18.89-7.66S307.34,414.25,308.36,412.21Z" style="fill:#fff;stroke:#263238;stroke-linecap:round;stroke-linejoin:round"></path><path d="M308.36,412.21a3.33,3.33,0,0,0,.36-2.3c-4.67,3.93-14.44,12-18.35,13.95-3.73,1.86-13.41,5.27-18.68,7.08,1.13,2.29,2,3.12,2.72,3,1.27-.26,14.29-4.85,18.89-7.66S307.34,414.25,308.36,412.21Z" style="fill:#fff;stroke:#263238;stroke-linecap:round;stroke-linejoin:round"></path><path d="M248.46,318.17s11.24,33,17.78,55.23A225.31,225.31,0,0,0,278,404.55s-5.36,3.06-8.94,4.85-9.7,4.08-9.7,4.08-4.85-7.66-9.95-17.61-13.79-34.21-17.88-41.62-9.7-18.64-9.7-18.64-2.55-12.76,7.15-16.08S245.66,314.6,248.46,318.17Z" style="fill:#407BFF;stroke:#263238;stroke-linecap:round;stroke-linejoin:round"></path><path d="M209.72,312.65s4.4,2.93,4.52,3.41-.12.86-1.1,1.23-5.49,1.22-5.49,1.22Z" style="fill:#fff;stroke:#263238;stroke-linecap:round;stroke-linejoin:round"></path><path d="M226.05,423.47s-1.76,10.95-3,14.94-4.48,11.26-3.45,13.06,6.48,3.66,9.26,3.89,6.34,4.78,11.51,6.65,12,1.37,11.85,0-15.31-18-16.05-22.1,1.91-16.74,1.91-16.74Z" style="fill:#fff;stroke:#263238;stroke-linecap:round;stroke-linejoin:round"></path><path d="M234.32,442.62l-.41,1.15a70.75,70.75,0,0,1-11.82-2.38c-1.41,3.91-3.25,8.67-2.44,10.08,1,1.81,6.48,3.66,9.26,3.89s6.34,4.78,11.51,6.65,12,1.37,11.85,0-15.31-18-16.05-22.1A10.66,10.66,0,0,0,234.32,442.62Z" style="fill:#fff;stroke:#263238;stroke-linecap:round;stroke-linejoin:round"></path><path d="M240.11,459.3c-4.09-2-7.79-5.44-13.24-7.28-3.54-1.21-6-2.18-7.3-2.72a3.55,3.55,0,0,0,.08,2.17c1,1.81,6.48,3.66,9.26,3.89s6.34,4.78,11.51,6.65c4.94,1.8,11.36,1.41,11.81.19C248.82,461.7,242.92,460.68,240.11,459.3Z" style="fill:#fff;stroke:#263238;stroke-linecap:round;stroke-linejoin:round"></path><path d="M223.34,341.23s20.17,2.3,21.71,12.51S243,427.52,243,427.52a43.94,43.94,0,0,1-8.93-.51c-4.09-.76-11-2.29-11-2.29s-1-21.7-2.3-30.39-2.3-33.95-2.3-33.95-33.7-2.81-36.76-4.85S223.34,341.23,223.34,341.23Z" style="fill:#407BFF;stroke:#263238;stroke-linecap:round;stroke-linejoin:round"></path><path d="M245.3,336.12s-45.19,17.62-56.68,21.45a54.27,54.27,0,0,1-31.91.26c-7.91-2.56-11.8-12.72-11.8-12.72s-2-2.35-1-4.64,17.37-16.86,27.32-19.41,28-1.44,28-1.44,38.92-9,44.28-8.26,9.63,19.85,10.39,22.4" style="fill:#407BFF;stroke:#263238;stroke-linecap:round;stroke-linejoin:round"></path><path d="M156.45,347.1s3.58-14,13-19.91" style="fill:none;stroke:#263238;stroke-linecap:round;stroke-linejoin:round"></path><path d="M154.41,337.66s3.83-5.88,8.94-7.15" style="fill:none;stroke:#263238;stroke-linecap:round;stroke-linejoin:round"></path><path d="M182.52,232.51a10.09,10.09,0,0,1,6.47,4.8c2.51,4.18,6.69,19.85,6.69,19.85s6.68,19.43,5.43,24-6.27,11.28-6.27,11.28.42,15,1.67,18a76.38,76.38,0,0,1,2.72,9.19s-3.55,2.51-15.25,4.18-21.31,2.51-25.28,5.64-12.74,15-13.79,15.67-2.71,1.88-3.55.21-2.3-5.22-.42-12.74,5.23-37.19,6.48-51.19-1.46-28.2.21-38,16.5-15.66,19.84-16.29S182.52,232.51,182.52,232.51Z" style="fill:#263238;stroke:#263238;stroke-linecap:round;stroke-linejoin:round"></path><path d="M147.26,332.55s6.39-7.4,9.45-8.68,24.51-1.28,24.51-1.28" style="fill:none;stroke:#fff;stroke-linecap:round;stroke-linejoin:round"></path><path d="M151.86,323.1a25.19,25.19,0,0,1,6.38-2.55c2.81-.51,10.21,0,10.21,0" style="fill:none;stroke:#fff;stroke-linecap:round;stroke-linejoin:round"></path><path d="M163.09,297.57a55.89,55.89,0,0,0,18.64-12" style="fill:none;stroke:#fff;stroke-linecap:round;stroke-linejoin:round"></path><path d="M186.07,173.18s3.13,6.69,4.18,8.77.62,5.65,1.46,8.57,5.64,4.8,5.64,6.48-1.88,5-1.88,5-1.05,13-2.72,14.41-8.56,1.88-8.56,1.88l-3.55,13.58,3.55,2.09s.62,12.33,0,16.72-.21,8.56-6.48,6.89S161.83,239.2,161,237.11s2.71-11.08-1.46-24.45,5-25.48,11.07-31.12S179.59,172.14,186.07,173.18Z" style="fill:#fff;stroke:#263238;stroke-linecap:round;stroke-linejoin:round"></path><path d="M186.07,173.18c-.21-3.76-.63-5.22-8.36-6.06s-24.23-1.46-30.71,10-6.47,36.56-6.47,36.56S126.74,226,125.69,233.55s4,14.63,11.91,17.14l.47.12a23.73,23.73,0,0,1,4.33-9.63c4.52-5.42,8.44-4.82,14.16-6.33s9.36-1.89,10.21-8.42,2.09-13.59,1.54-20.24c-.21-2.51,2.51-6.27,2.51-6.27s6.47,1.67,10.65-9.61S186.28,176.94,186.07,173.18Z" style="fill:#263238;stroke:#263238;stroke-linecap:round;stroke-linejoin:round"></path><path d="M173.53,203.05s-2.09-9.61-7.52-5.85,2.72,14.42,4,14.63,3.34-1.05,3.34-1.05" style="fill:#fff;stroke:#263238;stroke-linecap:round;stroke-linejoin:round"></path><polygon points="184.19 218.3 177.71 217.47 182.31 223.53 184.19 218.3" style="fill:#263238;stroke:#263238;stroke-linecap:round;stroke-linejoin:round"></polygon><path d="M191.06,192.91c.27,1.42,0,2.67-.63,2.79s-1.35-.94-1.63-2.35,0-2.66.64-2.78S190.79,191.5,191.06,192.91Z" style="fill:#263238"></path><path d="M204.25,306.78a10.6,10.6,0,0,0,1.6-.11l-.48-3c-1,.15-3.32.14-4-.85-.95-1.37-.2-8.93.77-10.21.36-.42,2.1-.42,3.35-.13l.7-3c-.75-.18-4.59-1-6.38,1.12s-2.85,11.2-.93,13.94C200.17,306.43,202.62,306.78,204.25,306.78Z" style="fill:#fff;stroke:#263238;stroke-linecap:round;stroke-linejoin:round"></path><rect x="204.13" y="286.75" width="18.2" height="23.71" transform="translate(426.46 597.2) rotate(180)" style="fill:#fff;stroke:#263238;stroke-linecap:round;stroke-linejoin:round"></rect><path d="M151.44,236.66s-9.64-3-14.05,15.63c-1.46,6.2-7.41,69-6.17,69.42,4.5,1.59,51.91-13.16,51.91-13.16s14.67-1,16-1.31,3.3-2.61,3.21-3.9,0-3.9,0-3.9,2.21-2.54,1.44-4.22a4.41,4.41,0,0,0-2.32-2.23h-3l-1.79-.74s2.23-2.32,1.86-4.46-2.17-3.32-2.93-1.76-.91,2.67-2.33,4.07a32.38,32.38,0,0,0-4.44,4.85c-1,1.59-3.73,5.68-3.73,5.68l-34.16,1.86L156,263.11" style="fill:#263238;stroke:#263238;stroke-linecap:round;stroke-linejoin:round"></path><path d="M203.68,295.22a4.41,4.41,0,0,0-2.32-2.23h-3l-1.79-.74s2.23-2.32,1.86-4.46-2.17-3.32-2.93-1.76-.91,2.67-2.33,4.07a32.38,32.38,0,0,0-4.44,4.85c-1,1.59-3.73,5.68-3.73,5.68l-34.16,1.86,2.26-17.15-19.18-.44c-1.75,18-3.34,36.58-2.67,36.82,4.5,1.59,51.91-13.16,51.91-13.16s14.67-1,16-1.31,3.3-2.61,3.21-3.9,0-3.9,0-3.9S204.45,296.9,203.68,295.22Z" style="fill:#fff;stroke:#263238;stroke-linecap:round;stroke-linejoin:round"></path><path d="M202.15,312.38s-3.83.77-4.85,2-3.57,8.17-2.29,8.43,3.83-5.36,3.83-5.36S206,313.91,202.15,312.38Z" style="fill:#fff;stroke:#263238;stroke-linecap:round;stroke-linejoin:round"></path><path d="M203.86,312.4a5.18,5.18,0,0,0-2.56.49c-1.1.61-3.42,5.86-3.78,7.33s0,2.92,1,2.56,4.4-5.62,5.37-6.23S205.57,312.42,203.86,312.4Z" style="fill:#fff;stroke:#263238;stroke-linecap:round;stroke-linejoin:round"></path><path d="M206.55,312.4a1.47,1.47,0,0,0-2.69,0c-1.46,2.08-3.9,8.43-3.29,8.91s2.07-1.09,3.05-2.19S207.28,315.21,206.55,312.4Z" style="fill:#fff;stroke:#263238;stroke-linecap:round;stroke-linejoin:round"></path><path d="M209.72,312.65s-2.19-1.35-3.17-.25-1.71,7-1.47,7.57,2.2-.85,2.57-1.46S209.72,312.65,209.72,312.65Z" style="fill:#fff;stroke:#263238;stroke-linecap:round;stroke-linejoin:round"></path></g></svg>
