<svg xmlns="http://www.w3.org/2000/svg" xmlns:xlink="http://www.w3.org/1999/xlink" viewBox="0 0 500 500"><defs><clipPath id="freepik--clip-path--inject-2"><path d="M355.16,209.94s-10.89-4.13-16.72-3.38-10.89,3.57-14.84,5.82S307.45,224.22,305,226.09s-2.07,12,6,10.9,19.16-10.14,19.16-10.14l1.88,25s-4.32,6.57-9,19-7.14,30.05-7.89,35.68S307.26,357,307.26,357l-9,42.26s2.63,1.88,8.26,1.13l29.12-81,9.57-26.67,1.88-.75,16.1,108.31,7.33-1.13s3.06-41.06,3.06-60.6-2.45-48.83-4.51-60.85S364,254.64,364,254.64l8.83-15.21s10.51,21.41,13,26.86,13.71,28,13.71,28-2.63,3.56-2.82,4.88-.75,3.94-.94,5.07,1.32,1.5,2.07.75,1.87-4.32,1.87-4.32l3,6s0,6,1.13,5.64,1.31-2.26,1.5-2.82,1.69-1.5,1.69-4.7-.75-8.26-2.07-10.14a28.72,28.72,0,0,1-2.25-3.94s-9-27.43-9.95-31.18-5.08-17.66-6.77-24.8-4.13-11.83-8.26-14.83S355.16,209.94,355.16,209.94Z" style="fill:#263238;stroke:#263238;stroke-linecap:round;stroke-linejoin:round"></path></clipPath><clipPath id="freepik--clip-path-2--inject-2"><path d="M386,234.73c-1.69-7.13-4.13-11.83-8.26-14.83s-22.54-10-22.54-10-10.89-4.13-16.72-3.38-10.89,3.57-14.84,5.82S307.45,224.22,305,226.09s-2.07,12,6,10.9,19.16-10.14,19.16-10.14l1.88,25s-4.32,6.57-9,19l-.15.39a29.14,29.14,0,0,0,24,14.26c11.53.59,18.37-3.28,22.26-7.06,0-.22-.07-.44-.1-.64-2.07-12-5.07-23.11-5.07-23.11l8.83-15.21s10.51,21.41,13,26.86c.36.82.93,2,1.63,3.49a17.52,17.52,0,0,0,7.37-3.48c-1-3.25-1.81-5.8-2-6.77C391.79,255.77,387.65,241.87,386,234.73Z" style="fill:#407BFF;stroke:#263238;stroke-linecap:round;stroke-linejoin:round"></path></clipPath></defs><g id="freepik--background-simple--inject-2"><path d="M60.31,218.37S38.13,275.17,70.73,319.8s88,43.4,131,57.44c22.5,7.35,36.45,27.39,55.9,39.59,62.19,39,155.6-15.64,177-78.74,18.51-54.63,5.64-105.74-38.58-159.17S322.84,86,243.38,77.62,92,146.29,60.31,218.37Z" style="fill:#407BFF"></path><path d="M60.31,218.37S38.13,275.17,70.73,319.8s88,43.4,131,57.44c22.5,7.35,36.45,27.39,55.9,39.59,62.19,39,155.6-15.64,177-78.74,18.51-54.63,5.64-105.74-38.58-159.17S322.84,86,243.38,77.62,92,146.29,60.31,218.37Z" style="fill:#fff;opacity:0.75"></path></g><g id="freepik--Character--inject-2"><path d="M298.25,399.27s-15.56,11.12-15.56,11.84,1.68,1.67,2.63,1.43,15.33-.05,19,0a1,1,0,0,0,1-.84,46.2,46.2,0,0,0,.58-6.08,22.66,22.66,0,0,1,.62-5.21Z" style="fill:#fff;stroke:#263238;stroke-linecap:round;stroke-linejoin:round"></path><path d="M371.05,399.27s15.55,11.12,15.55,11.84-1.67,1.67-2.62,1.43-15.33-.05-19,0a1,1,0,0,1-1-.84,44.54,44.54,0,0,1-.58-6.08,22.66,22.66,0,0,0-.62-5.21Z" style="fill:#fff;stroke:#263238;stroke-linecap:round;stroke-linejoin:round"></path><path d="M355.16,209.94s-10.89-4.13-16.72-3.38-10.89,3.57-14.84,5.82S307.45,224.22,305,226.09s-2.07,12,6,10.9,19.16-10.14,19.16-10.14l1.88,25s-4.32,6.57-9,19-7.14,30.05-7.89,35.68S307.26,357,307.26,357l-9,42.26s2.63,1.88,8.26,1.13l29.12-81,9.57-26.67,1.88-.75,16.1,108.31,7.33-1.13s3.06-41.06,3.06-60.6-2.45-48.83-4.51-60.85S364,254.64,364,254.64l8.83-15.21s10.51,21.41,13,26.86,13.71,28,13.71,28-2.63,3.56-2.82,4.88-.75,3.94-.94,5.07,1.32,1.5,2.07.75,1.87-4.32,1.87-4.32l3,6s0,6,1.13,5.64,1.31-2.26,1.5-2.82,1.69-1.5,1.69-4.7-.75-8.26-2.07-10.14a28.72,28.72,0,0,1-2.25-3.94s-9-27.43-9.95-31.18-5.08-17.66-6.77-24.8-4.13-11.83-8.26-14.83S355.16,209.94,355.16,209.94Z" style="fill:#263238"></path><g style="clip-path:url(#freepik--clip-path--inject-2)"><g style="opacity:0.2"><path d="M363.18,400.33l.45-.07L359,358s5.5,7.5,5.5,5c0-2.16-13.1-52.24-16.63-65.69Z" style="fill:#fff"></path><path d="M315.15,306.48c-.75,5.64-7.89,50.53-7.89,50.53l-9,42.26a2.58,2.58,0,0,0,.36.21c3.88-9.62,25-62.13,25.89-68.48,1-7-8,10-8,10L329,275c1.5-8,3.06-23.17,3.06-23.17s-4.32,6.57-9,19S315.9,300.85,315.15,306.48Z" style="fill:#fff"></path></g></g><path d="M355.16,209.94s-10.89-4.13-16.72-3.38-10.89,3.57-14.84,5.82S307.45,224.22,305,226.09s-2.07,12,6,10.9,19.16-10.14,19.16-10.14l1.88,25s-4.32,6.57-9,19-7.14,30.05-7.89,35.68S307.26,357,307.26,357l-9,42.26s2.63,1.88,8.26,1.13l29.12-81,9.57-26.67,1.88-.75,16.1,108.31,7.33-1.13s3.06-41.06,3.06-60.6-2.45-48.83-4.51-60.85S364,254.64,364,254.64l8.83-15.21s10.51,21.41,13,26.86,13.71,28,13.71,28-2.63,3.56-2.82,4.88-.75,3.94-.94,5.07,1.32,1.5,2.07.75,1.87-4.32,1.87-4.32l3,6s0,6,1.13,5.64,1.31-2.26,1.5-2.82,1.69-1.5,1.69-4.7-.75-8.26-2.07-10.14a28.72,28.72,0,0,1-2.25-3.94s-9-27.43-9.95-31.18-5.08-17.66-6.77-24.8-4.13-11.83-8.26-14.83S355.16,209.94,355.16,209.94Z" style="fill:none;stroke:#263238;stroke-linecap:round;stroke-linejoin:round"></path><path d="M395.73,304.23c-.19,1.13,1.32,1.5,2.07.75s1.87-4.32,1.87-4.32l3,6s0,6,1.13,5.64,1.31-2.26,1.5-2.82,1.69-1.5,1.69-4.7-.75-8.26-2.07-10.14a28.72,28.72,0,0,1-2.25-3.94s-6.4-19.46-9-27.84l-8.62,1.9.7,1.52c2.44,5.45,13.71,28,13.71,28s-2.63,3.56-2.82,4.88S395.92,303.1,395.73,304.23Z" style="fill:#fff;stroke:#263238;stroke-linecap:round;stroke-linejoin:round"></path><path d="M386,234.73c-1.69-7.13-4.13-11.83-8.26-14.83s-22.54-10-22.54-10-10.89-4.13-16.72-3.38-10.89,3.57-14.84,5.82S307.45,224.22,305,226.09s-2.07,12,6,10.9,19.16-10.14,19.16-10.14l1.88,25s-4.32,6.57-9,19l-.15.39a29.14,29.14,0,0,0,24,14.26c11.53.59,18.37-3.28,22.26-7.06,0-.22-.07-.44-.1-.64-2.07-12-5.07-23.11-5.07-23.11l8.83-15.21s10.51,21.41,13,26.86c.36.82.93,2,1.63,3.49a17.52,17.52,0,0,0,7.37-3.48c-1-3.25-1.81-5.8-2-6.77C391.79,255.77,387.65,241.87,386,234.73Z" style="fill:#407BFF"></path><g style="clip-path:url(#freepik--clip-path-2--inject-2)"><path d="M394.78,266.3c-1-3.25-1.81-5.8-2-6.77-.94-3.76-5.08-17.66-6.77-24.8s-4.13-11.83-8.26-14.83-22.54-10-22.54-10l-.18-.07-1.79.16s-8.63.11-12.86,2.65-5.94,9-6.78,8.76-.28-6.5-.85-5.37S313.5,229.62,307.28,233a22.55,22.55,0,0,0-2.37,1.5c1.12,1.73,3.07,2.9,6.11,2.48a21.29,21.29,0,0,0,4.85-1.39c7-4,14.31-8.75,14.31-8.75s7.32,22.83,10.15,23.67,13.83-1.69,11.86,1.41-7.91,4.52-9.89,4.81,5.65.28,6.78.28-11,8.19-16.1,11.86c-3.21,2.32-6.08,4.53-6.12,7.48a28.65,28.65,0,0,0,20,9.09c11.53.59,18.37-3.28,22.26-7.06,0-.22-.07-.44-.1-.64-2.07-12-5.07-23.11-5.07-23.11l8.78-15.12.31-2s9.89,16.95,11.3,17.79,2.26-2.54,2.54-.84c.17,1,2.78,8.31,4.77,13.8A19.18,19.18,0,0,0,394.78,266.3Z" style="opacity:0.4"></path></g><path d="M386,234.73c-1.69-7.13-4.13-11.83-8.26-14.83s-22.54-10-22.54-10-10.89-4.13-16.72-3.38-10.89,3.57-14.84,5.82S307.45,224.22,305,226.09s-2.07,12,6,10.9,19.16-10.14,19.16-10.14l1.88,25s-4.32,6.57-9,19l-.15.39a29.14,29.14,0,0,0,24,14.26c11.53.59,18.37-3.28,22.26-7.06,0-.22-.07-.44-.1-.64-2.07-12-5.07-23.11-5.07-23.11l8.83-15.21s10.51,21.41,13,26.86c.36.82.93,2,1.63,3.49a17.52,17.52,0,0,0,7.37-3.48c-1-3.25-1.81-5.8-2-6.77C391.79,255.77,387.65,241.87,386,234.73Z" style="fill:none;stroke:#263238;stroke-linecap:round;stroke-linejoin:round"></path><path d="M362.76,254s-6.15,7.46-20.65,10.54" style="fill:none;stroke:#263238;stroke-linecap:round;stroke-linejoin:round"></path><path d="M356,254.7s-6.81,3.29-18.89,5.05" style="fill:none;stroke:#263238;stroke-linecap:round;stroke-linejoin:round"></path><path d="M347.38,216.26s-2,8.78,2.86,15.81" style="fill:none;stroke:#263238;stroke-linecap:round;stroke-linejoin:round"></path><path d="M367.59,218.89s.88,4-2.42,9.23" style="fill:none;stroke:#263238;stroke-linecap:round;stroke-linejoin:round"></path><polyline points="377.47 233.61 372.81 239.43 380.99 233.39" style="fill:none;stroke:#263238;stroke-linecap:round;stroke-linejoin:round"></polyline><path d="M320.22,224.4,318,233a7.14,7.14,0,0,1-7.89,1.88c-5.07-1.69-5.07-5.82-3.76-8.07s7.89-5.83,7.89-5.83S321.91,218.77,320.22,224.4Z" style="fill:#fff;stroke:#263238;stroke-linecap:round;stroke-linejoin:round"></path><path d="M325.86,215,323,221a7.86,7.86,0,0,1-4.51,3.76s-.18,5.45-3,5.82-4.89-1.69-3.76-7.14a11,11,0,0,1,7.89-8.64A13.78,13.78,0,0,1,325.86,215Z" style="fill:#fff;stroke:#263238;stroke-linecap:round;stroke-linejoin:round"></path><path d="M351.34,201.19s-.38,8.07-.56,13.71,4.5,12.77,9.76,9.77,6.62-18.52,6.62-18.52-1.36,2.93-7.37-1S351.34,201.19,351.34,201.19Z" style="fill:#ccc;stroke:#263238;stroke-linecap:round;stroke-linejoin:round"></path><path d="M309.52,224.78s-2.07,2.44,0,4.51,3.19,1.69,2.81-.38-.37-3.19,0-3.94S310.46,223.28,309.52,224.78Z" style="fill:#fff;stroke:#263238;stroke-linecap:round;stroke-linejoin:round"></path><path d="M309.89,219.71a8.71,8.71,0,0,0-1.31,3.75c0,1.7,5.07,4.89,6.38,4.14s.38-2.07-1.12-3.95S310.83,219.71,309.89,219.71Z" style="fill:#fff;stroke:#263238;stroke-linecap:round;stroke-linejoin:round"></path><path d="M311.4,213.89s-3.57,3.94-3,5.63,5.26,6.57,6.95,6-.75-3.76-1.31-5.82S312.52,214.07,311.4,213.89Z" style="fill:#fff;stroke:#263238;stroke-linecap:round;stroke-linejoin:round"></path><path d="M318.35,204.12l-4.14,14.65.75,4.69,3.39-3.56,4.5-13.9s-.18-2.07-1.69-2.44A3.72,3.72,0,0,0,318.35,204.12Z" style="fill:#fff;stroke:#263238;stroke-linecap:round;stroke-linejoin:round"></path><path d="M321.16,203.56a3.72,3.72,0,0,0-2.81.56l-.8,2.81a5,5,0,0,1,4.6,1.23l.7-2.16S322.67,203.93,321.16,203.56Z" style="fill:#263238;stroke:#263238;stroke-linecap:round;stroke-linejoin:round"></path><path d="M315,223.46l2.86-3a5.38,5.38,0,0,0-3.49-.93Z" style="fill:#263238;stroke:#263238;stroke-linecap:round;stroke-linejoin:round"></path><path d="M325.48,209.57s-6.76,3.75-7,5.63,1.51,2.63,4.14,1.88a6.62,6.62,0,0,0,4.88-4C328.68,210.88,326.61,209.19,325.48,209.57Z" style="fill:#fff;stroke:#263238;stroke-linecap:round;stroke-linejoin:round"></path><path d="M316.65,216.89s-.56-6.2-1.31-8.26-4.13-.19-4.13,2.06.37,7.89,3,8.08S316.65,216.89,316.65,216.89Z" style="fill:#fff;stroke:#263238;stroke-linecap:round;stroke-linejoin:round"></path><path d="M362.18,168.88s-12.09,2.22-17.25,7.67-3.25,16.38-4.28,21.24-3.39,7.08-4.87,7.08-.59,4.57,4.13,4.87,5.61-.74,5.61-.74-2.36,3.1-2.81,3.1,1.18,1.18,4.43,1a6.63,6.63,0,0,0,6.19-5.9c.3-3.09-1.47-6.78.59-9.58s10.92-6.05,11.66-6.79,5.6,5.9,4.27,10.18-3.54,8.4-3.39,10a4.74,4.74,0,0,0,3,3.68c1.48.59,2.8,1,2.8,1s-1.32-2.66-.14-4.28,5.16-.59,6-4.57a23.47,23.47,0,0,0,.44-7.38,6.9,6.9,0,0,0,3.1,1.63,4.71,4.71,0,0,0,2.66-.59L382.24,199a13,13,0,0,0,4.13-1.77,3.78,3.78,0,0,0,1.33-1.77s-3.69-.88-5.46-7.22-1.33-11.36-6.78-15.79S364.54,167.26,362.18,168.88Z" style="fill:#263238;stroke:#263238;stroke-linecap:round;stroke-linejoin:round"></path><path d="M366.18,174.28a22.7,22.7,0,0,1,.28,5.29c-.28,2-8.63,8.91-15.87,10.58s-6.13,12.53-6.13,12.53" style="fill:none;stroke:#fff;stroke-linecap:round;stroke-linejoin:round"></path><path d="M364,173.72s-.28,3.35-9.46,5.57-12,4.74-12,11.14" style="fill:none;stroke:#fff;stroke-linecap:round;stroke-linejoin:round"></path><path d="M368.41,178.46s-2.23,6.68,5.29,12.81,10.85,5.56,10.85,5.56" style="fill:none;stroke:#fff;stroke-linecap:round;stroke-linejoin:round"></path><path d="M367.35,184.08a11.54,11.54,0,0,1-5.17,4.72c-3.83,1.91-9.14,4-9.73,5a6.62,6.62,0,0,0-.74,1.77s-.88-4-2.95-1.77-1.92,6.2-.44,7.82,2.51,1.47,2.51,1.47a19.78,19.78,0,0,0,2.36,6.93c1.77,2.66,6.49,6.2,8,5.9s8.85-5.31,10.18-8.26,2.51-8.4,3.24-10a11.08,11.08,0,0,0,.89-3.1S367.79,186.73,367.35,184.08Z" style="fill:#fff;stroke:#263238;stroke-linecap:round;stroke-linejoin:round"></path><path d="M366.76,198.53a9.22,9.22,0,0,0-.45,2.8c.15.89.45,2.36-1.47,1.92l-1.92-.44" style="fill:none;stroke:#263238;stroke-linecap:round;stroke-linejoin:round"></path><path d="M358.64,204.73a6.71,6.71,0,0,0,5.46,2.5" style="fill:none;stroke:#263238;stroke-linecap:round;stroke-linejoin:round"></path><path d="M364.54,193.37a5.26,5.26,0,0,0-5.31-2.21" style="fill:none;stroke:#263238;stroke-linecap:round;stroke-linejoin:round"></path><path d="M368.08,194.25s3.54-1.18,4.58,1.48" style="fill:none;stroke:#263238;stroke-linecap:round;stroke-linejoin:round"></path><path d="M361.29,196.62c-.07.85-.56,1.51-1.09,1.46s-.89-.77-.82-1.62S360,195,360.47,195,361.37,195.77,361.29,196.62Z" style="fill:#263238"></path><path d="M369,198.69c-.07.85-.56,1.5-1.09,1.46s-.89-.78-.82-1.63.57-1.5,1.09-1.46S369,197.83,369,198.69Z" style="fill:#263238"></path></g><g id="freepik--sketch-lines--inject-2"><path d="M133.23,172.65a4.63,4.63,0,0,1-.65,0,5.27,5.27,0,0,1-4.06-2.67,2.22,2.22,0,0,1-.31-.94c-3.09,2-5,2.78-6.64,2.46a3.16,3.16,0,0,1-2.13-1.52,2.52,2.52,0,0,1-.2-2.61l-6.06,3.5a2.42,2.42,0,0,1-3.33-.89c-.78-1.35-.46-2.67.68-4.13-.81.6-1.66,1.23-2.55,1.87s-1.83,1.32-2.3,1.7l-.27.3a2.43,2.43,0,0,1-3.93-.4,2.22,2.22,0,0,1,.51-3.08l.75-.82a2.42,2.42,0,0,1-1.18-1l-.08-.13c-1.09-1.89-.2-3.85.75-5.44a2.61,2.61,0,0,1-.75-.8,2.44,2.44,0,0,1,.89-3.33,2.13,2.13,0,0,1,.63-.25c.36-.21,1-.65,1.65-1.06a2.46,2.46,0,0,1,1.92-.36,2.42,2.42,0,0,1,1.56,1.16,4,4,0,0,1,.33,3.24l7.16-4.14a2.45,2.45,0,0,1,1.78-.26,11.3,11.3,0,0,1,6-1.65,5.43,5.43,0,0,1,4.28,2.8,2.71,2.71,0,0,1,.18,2.58l6-3.47a2.44,2.44,0,0,1,3.47,3c4-2.91,5.9-3.85,7.53-3.52a2.86,2.86,0,0,1,1.92,1.37c.44.77,1.4,2.43-1.18,5.78,2.19-2,4.39-4.11,6.36-6.22a2.43,2.43,0,0,1,2.06-.76,2.39,2.39,0,0,1,1.83,1.2c1.08,1.87.36,2.84-5.83,8.79a126.41,126.41,0,0,0,11.85-9.39,2.43,2.43,0,0,1,2-.59,2.4,2.4,0,0,1,1.72,1.19,2.23,2.23,0,0,1,.2,2.26l5.46-3.15a2.43,2.43,0,0,1,2.8,3.95c-2.81,2.41-5.86,5.17-8.24,7.46,1.07-.66,2.35-1.5,3.88-2.57,3-3.41,7.93-6.66,11.59-8.83h0A2,2,0,0,1,183,153a2.43,2.43,0,0,1,.83,4.47l-1.12.89c-3.78,3-7,5.53-9.8,7.49a7.58,7.58,0,0,0-.87,1.17c3-1,9.75-6.56,12.82-9.09,5.25-4.31,6.55-5.32,8.22-5a2.62,2.62,0,0,1,1.8,1.26,4.78,4.78,0,0,1,.7,2.57l6-3.46a2.44,2.44,0,0,1,3.3,3.38l5.85-3.38a2.44,2.44,0,0,1,3.65,2c3.49-2.15,5.28-2.77,6.73-2.45a3,3,0,0,1,1.28.62c2.49-1.41,4.9-2.26,6.92-2a5.41,5.41,0,0,1,4.1,2.49c2.24-1.44,4.14-2.12,5.88-1.84a4.32,4.32,0,0,1,3.1,2.17c1.15,2,.47,4.21-2.58,7.37a101.91,101.91,0,0,0,8.65-7.86,2.38,2.38,0,0,1,2-.71,2.42,2.42,0,0,1,1.8,1.19,5.12,5.12,0,0,1,.56,3.63c2.08-1.43,4.18-2.92,6.17-4.37A2.43,2.43,0,0,1,261,153a2.41,2.41,0,0,1,1.6,1.16,4.54,4.54,0,0,1,.62,2.2l5.36-3.09a2.44,2.44,0,0,1,1.85-.24,2.39,2.39,0,0,1,1.47,1.13,2.65,2.65,0,0,1,.29,2.31l5.54-3.2a2.45,2.45,0,0,1,3.33.89,3.37,3.37,0,0,1-.15,3.8c1.75-1.39,3.53-2.88,5.28-4.41a2.42,2.42,0,0,1,3.5.3c2.06-1.57,4-2.47,5.91-2.25a4.72,4.72,0,0,1,3.55,2.37c2.11-1.58,4.09-2.48,6-2.25a4.63,4.63,0,0,1,3.5,2.44,2.42,2.42,0,0,1,.32,1.42c3.5-2.32,5.59-3.22,7.23-2.88a3,3,0,0,1,2,1.46,4.19,4.19,0,0,1,.53,2.94l6.65-3.84a2.43,2.43,0,0,1,3.32.89c1.8,3.12-1.83,5.27-6,7.76-2,1.17-6.38,3.79-7.18,5.27,2.91-.48,11.5-6.49,19.31-13.61a2.42,2.42,0,0,1,2-.61,2.46,2.46,0,0,1,1.74,1.19,4.78,4.78,0,0,1-.15,4.71,4.34,4.34,0,0,1,.5.69q1,1.83-.34,4.61a2.24,2.24,0,0,1,.35.46,2.43,2.43,0,0,1-.89,3.33l-5,2.9a2.43,2.43,0,0,1-3.14-3.6c-1.95,1.37-3.94,2.6-5.66,3.6a2.44,2.44,0,0,1-3.14-.6l-.12-.17c-2.62,1.38-5,2.19-6.75,1.92a4.15,4.15,0,0,1-3-2,4.85,4.85,0,0,1-.71-2.46l-5.81,3.36a2.43,2.43,0,0,1-3.32-.89,4.58,4.58,0,0,1-.64-2.46c-4.63,3.3-6.36,4.14-8,3.8a2.79,2.79,0,0,1-1.86-1.34,4,4,0,0,1-.42-1c-2.45,2.14-4.37,3.21-6.28,3a3.87,3.87,0,0,1-2.89-2,2.41,2.41,0,0,1-.28-.76c-2.28,2-4.18,3.06-6.05,2.84a4,4,0,0,1-3-2c-2.59,1.34-4.91,2.11-6.58,1.84a3.93,3.93,0,0,1-2.84-1.92,4,4,0,0,1-.57-2l-5,2.85a2.42,2.42,0,0,1-3.32-.89,3.13,3.13,0,0,1-.4-2.24l-1.05.61c-2,1.26-3.72,2.18-4.46,2.57a2.44,2.44,0,0,1-3.27-1,2.47,2.47,0,0,1-.28-.87q-5.09,2.73-7,2.33a3,3,0,0,1-1.64-.93c-2.55,1.39-5,2.21-6.89,2a4.91,4.91,0,0,1-3.72-2.45c-1.12-1.93.53-3.12,1.85-4.07,6.43-4.64,9.21-7.24,10.4-8.66-2.54,1.33-7,5.37-9.4,7.51-5.38,4.84-8.06,7.16-10.52,6.76a3.09,3.09,0,0,1-2.24-1.54,5.21,5.21,0,0,1-.5-4.11c-.58.57-1.16,1.15-1.73,1.73l-2.67,2.83a2.43,2.43,0,0,1-3.58-3.3c.39-.43,1-1.13,1.87-2l-.25.18c-7.65,5.36-9.15,6.28-10.82,5.91a2.56,2.56,0,0,1-1.69-1.23,2.46,2.46,0,0,1,0-2.34l-5.6,3.23a2.42,2.42,0,0,1-3.32-.89,2.69,2.69,0,0,1-.4-2.24l-5.43,3.13a2.42,2.42,0,0,1-3.32-.89,1.51,1.51,0,0,1-.15-.28c-2.81,1.73-5.15,2.6-7,2.26a4,4,0,0,1-2.83-2,4.44,4.44,0,0,1-.24-.49c-3.35,1.9-5.7,2.59-7.38,2.28a3.75,3.75,0,0,1-2.59-1.79c-.42-.74-.82-1.44.1-3.05l-6.82,3.94a2.45,2.45,0,0,1-3.13-.6c-2.45,1.24-4.65,1.93-6.27,1.67a4.15,4.15,0,0,1-2.19-1A13,13,0,0,1,133.23,172.65Zm-14.22-15a8.75,8.75,0,0,1-1.32,2l0,0c1.28-1,3-2.28,4.18-3.32A11.65,11.65,0,0,0,119,157.61Zm-13.32-2.08h0Zm0,0Zm0,0h0Zm-.27-.36a2.42,2.42,0,0,1,.27.36A2.42,2.42,0,0,0,105.42,155.16Z" style="fill:#407BFF"></path><path d="M115.77,327.69l-.33,0a2.66,2.66,0,0,1-2-1.35,1.2,1.2,0,0,1-.16-.47c-1.55,1-2.53,1.4-3.34,1.24a1.59,1.59,0,0,1-1.07-.76,1.26,1.26,0,0,1-.1-1.32l-3.06,1.76a1.21,1.21,0,0,1-.93.13,1.25,1.25,0,0,1-.74-.57,1.73,1.73,0,0,1,.34-2.09l-1.29.95c-.43.31-.92.66-1.15.85l-.14.15a1.21,1.21,0,0,1-1,.41,1.25,1.25,0,0,1-.94-.61,1.11,1.11,0,0,1,.26-1.55l.37-.41a1.28,1.28,0,0,1-.59-.52l0-.07a2.65,2.65,0,0,1,.38-2.74,1.12,1.12,0,0,1-.38-.4,1.23,1.23,0,0,1,.45-1.68,1.37,1.37,0,0,1,.31-.13c.18-.1.53-.32.84-.53a1.21,1.21,0,0,1,1-.18,1.26,1.26,0,0,1,.79.58,2,2,0,0,1,.16,1.64l3.61-2.09a1.28,1.28,0,0,1,.9-.13,5.65,5.65,0,0,1,3-.83,2.71,2.71,0,0,1,2.16,1.41,1.35,1.35,0,0,1,.09,1.3l3-1.75a1.23,1.23,0,0,1,1.63.38,1.19,1.19,0,0,1,.11,1.15c2-1.46,3-1.94,3.8-1.77a1.43,1.43,0,0,1,1,.69c.23.39.71,1.22-.59,2.91,1.11-1,2.21-2.07,3.21-3.13a1.22,1.22,0,0,1,1-.39,1.25,1.25,0,0,1,.93.61c.54.94.17,1.43-2.94,4.43a66.2,66.2,0,0,0,6-4.73,1.2,1.2,0,0,1,1-.3,1.22,1.22,0,0,1,.86.6,1.13,1.13,0,0,1,.1,1.14l2.75-1.59a1.24,1.24,0,0,1,1.62.35,1.22,1.22,0,0,1-.21,1.64c-1.41,1.22-2.95,2.6-4.15,3.76.54-.33,1.18-.76,2-1.3a26.41,26.41,0,0,1,5.83-4.44h0a1,1,0,0,1,.84-.16,1.23,1.23,0,0,1,.42,2.26c-.1.07-.29.23-.56.45-1.91,1.53-3.54,2.78-4.94,3.77a4.24,4.24,0,0,0-.44.59c1.49-.5,4.91-3.31,6.46-4.58,2.64-2.17,3.3-2.68,4.14-2.53a1.33,1.33,0,0,1,.91.64,2.46,2.46,0,0,1,.35,1.29l3-1.74a1.22,1.22,0,0,1,1.64.39,1.24,1.24,0,0,1,0,1.31l2.95-1.7a1.21,1.21,0,0,1,1.59.33,1.13,1.13,0,0,1,.24.65c1.76-1.09,2.66-1.4,3.4-1.23a1.47,1.47,0,0,1,.64.31,6.32,6.32,0,0,1,3.49-1,2.73,2.73,0,0,1,2.06,1.26,4.35,4.35,0,0,1,3-.93,2.21,2.21,0,0,1,1.57,1.09c.57,1,.23,2.12-1.3,3.72a53.4,53.4,0,0,0,4.35-4,1.21,1.21,0,0,1,1-.36,1.23,1.23,0,0,1,.91.6,2.57,2.57,0,0,1,.28,1.83c1.05-.72,2.11-1.47,3.11-2.2a1.21,1.21,0,0,1,1-.22,1.26,1.26,0,0,1,.81.59,2.29,2.29,0,0,1,.31,1.11l2.7-1.56a1.24,1.24,0,0,1,1.68.45,1.35,1.35,0,0,1,.14,1.16l2.79-1.61a1.23,1.23,0,0,1,1.68.45,1.68,1.68,0,0,1-.08,1.91c.88-.7,1.78-1.44,2.66-2.22a1.24,1.24,0,0,1,1-.29,1.26,1.26,0,0,1,.76.44,4.24,4.24,0,0,1,3-1.13,2.38,2.38,0,0,1,1.79,1.19,4.37,4.37,0,0,1,3-1.13,2.33,2.33,0,0,1,1.76,1.23,1.21,1.21,0,0,1,.16.72c1.76-1.18,2.82-1.63,3.64-1.46a1.57,1.57,0,0,1,1,.74,2.09,2.09,0,0,1,.26,1.48l3.35-1.93a1.21,1.21,0,0,1,.93-.13,1.25,1.25,0,0,1,.75.58c.9,1.56-.93,2.65-3,3.9-1,.59-3.22,1.91-3.62,2.66,1.47-.24,5.79-3.27,9.73-6.86a1.23,1.23,0,0,1,1.89.3,2.38,2.38,0,0,1-.08,2.36,2.31,2.31,0,0,1,.25.36,2.36,2.36,0,0,1-.17,2.32,1,1,0,0,1,.18.23,1.23,1.23,0,0,1-.45,1.68l-2.53,1.46a1.23,1.23,0,0,1-1.58-1.82c-1,.69-2,1.31-2.85,1.82a1.22,1.22,0,0,1-1.58-.31.27.27,0,0,1-.07-.08,6.22,6.22,0,0,1-3.39,1,2.1,2.1,0,0,1-1.53-1,2.43,2.43,0,0,1-.36-1.24l-2.93,1.69a1.22,1.22,0,0,1-1.67-.45,2.2,2.2,0,0,1-.32-1.23c-2.33,1.66-3.2,2.08-4,1.91a1.43,1.43,0,0,1-.94-.68,2.58,2.58,0,0,1-.21-.49c-1.23,1.07-2.2,1.61-3.16,1.49a2,2,0,0,1-1.46-1,1.09,1.09,0,0,1-.14-.38c-1.15,1-2.11,1.54-3,1.43a2,2,0,0,1-1.5-1,6,6,0,0,1-3.31.92,2,2,0,0,1-1.43-1,1.93,1.93,0,0,1-.29-1l-2.49,1.44a1.22,1.22,0,0,1-.93.13,1.24,1.24,0,0,1-.75-.57,1.6,1.6,0,0,1-.2-1.13l-.53.3c-1,.64-1.87,1.1-2.24,1.3a1.23,1.23,0,0,1-1.65-.49,1,1,0,0,1-.14-.44c-1.71.91-2.89,1.3-3.53,1.17a1.5,1.5,0,0,1-.83-.47,6.25,6.25,0,0,1-3.47,1,2.51,2.51,0,0,1-1.88-1.24c-.56-1,.27-1.57.93-2.05a31.89,31.89,0,0,0,5.25-4.36,32.58,32.58,0,0,0-4.74,3.78c-2.71,2.44-4.06,3.61-5.3,3.41a1.59,1.59,0,0,1-1.13-.78,2.66,2.66,0,0,1-.25-2.07c-.29.29-.59.58-.87.87l-1.35,1.43a1.22,1.22,0,0,1-1.8-1.66c.2-.22.52-.58.94-1l-.12.09c-3.86,2.7-4.61,3.17-5.45,3a1.36,1.36,0,0,1-.86-.62,1.24,1.24,0,0,1,0-1.18l-2.82,1.63a1.23,1.23,0,0,1-1.68-.45,1.39,1.39,0,0,1-.2-1.13l-2.73,1.58a1.21,1.21,0,0,1-1.67-.45,1,1,0,0,1-.08-.14,5.5,5.5,0,0,1-3.55,1.14,2,2,0,0,1-1.42-1,1.34,1.34,0,0,1-.12-.24c-1.69.95-2.88,1.3-3.72,1.14a1.81,1.81,0,0,1-1.3-.9,1.24,1.24,0,0,1,0-1.53l-3.44,2a1.22,1.22,0,0,1-1.58-.3,5.77,5.77,0,0,1-3.16.84,2.13,2.13,0,0,1-1.1-.52A6.52,6.52,0,0,1,115.77,327.69Zm-7.17-7.58a4.35,4.35,0,0,1-.66,1h0c.64-.49,1.49-1.14,2.11-1.67A6.22,6.22,0,0,0,108.6,320.11Zm-6.71-1Zm0,0h0Zm0,0Zm-.13-.18a1.18,1.18,0,0,1,.13.18A1.4,1.4,0,0,0,101.76,318.88Z" style="fill:#407BFF"></path><path d="M123.57,368.64a1.72,1.72,0,0,1-.33,0,2.64,2.64,0,0,1-2-1.34,1.2,1.2,0,0,1-.16-.47c-1.55,1-2.53,1.4-3.34,1.23a1.56,1.56,0,0,1-1.07-.76,1.25,1.25,0,0,1-.1-1.32l-3.06,1.77a1.22,1.22,0,0,1-1.67-.45,1.72,1.72,0,0,1,.34-2.08l-1.29.94-1.15.85-.14.16a1.24,1.24,0,0,1-2-.2,1.12,1.12,0,0,1,.26-1.56l.37-.41a1.22,1.22,0,0,1-.59-.52l0-.06a2.64,2.64,0,0,1,.38-2.74,1.35,1.35,0,0,1-.38-.41,1.21,1.21,0,0,1,.45-1.67,1,1,0,0,1,.32-.13c.18-.1.52-.33.83-.53a1.21,1.21,0,0,1,1.75.4,2,2,0,0,1,.17,1.63l3.6-2.08a1.19,1.19,0,0,1,.9-.13,5.67,5.67,0,0,1,3-.84,2.75,2.75,0,0,1,2.15,1.41,1.35,1.35,0,0,1,.09,1.3l3-1.74a1.22,1.22,0,0,1,1.74,1.53c2-1.47,3-1.94,3.8-1.77a1.38,1.38,0,0,1,1,.68c.23.39.71,1.23-.59,2.91,1.11-1,2.21-2.06,3.21-3.13a1.23,1.23,0,0,1,2,.22c.54.95.18,1.43-2.94,4.43a64.46,64.46,0,0,0,6-4.73,1.21,1.21,0,0,1,1.87.3,1.13,1.13,0,0,1,.1,1.14l2.75-1.59a1.24,1.24,0,0,1,1.62.36,1.23,1.23,0,0,1-.21,1.64c-1.41,1.21-3,2.6-4.15,3.75.54-.33,1.19-.75,2-1.29a26.15,26.15,0,0,1,5.83-4.45h0a1,1,0,0,1,.84-.15,1.22,1.22,0,0,1,.42,2.25l-.56.45c-1.91,1.53-3.54,2.78-4.94,3.77a4.24,4.24,0,0,0-.44.59c1.49-.49,4.91-3.3,6.46-4.58,2.64-2.17,3.3-2.68,4.14-2.52a1.35,1.35,0,0,1,.91.63,2.42,2.42,0,0,1,.35,1.29l3-1.74a1.23,1.23,0,0,1,1.66,1.7l3-1.7a1.22,1.22,0,0,1,1.59.33,1.16,1.16,0,0,1,.24.65c1.76-1.08,2.66-1.39,3.4-1.23a1.47,1.47,0,0,1,.64.31,6.22,6.22,0,0,1,3.49-1,2.72,2.72,0,0,1,2.06,1.25,4.4,4.4,0,0,1,3-.93,2.2,2.2,0,0,1,1.57,1.1c.57,1,.23,2.12-1.3,3.71a51.63,51.63,0,0,0,4.35-4,1.24,1.24,0,0,1,1-.36,1.22,1.22,0,0,1,.91.61,2.54,2.54,0,0,1,.28,1.82c1-.72,2.11-1.47,3.11-2.2a1.22,1.22,0,0,1,1.78.38,2.25,2.25,0,0,1,.31,1.1l2.7-1.55a1.22,1.22,0,0,1,.93-.13,1.24,1.24,0,0,1,.75.57,1.37,1.37,0,0,1,.14,1.17l2.79-1.62a1.25,1.25,0,0,1,1.68.45,1.72,1.72,0,0,1-.07,1.92c.88-.7,1.77-1.45,2.65-2.22a1.23,1.23,0,0,1,1.77.15,4.27,4.27,0,0,1,3-1.14,2.4,2.4,0,0,1,1.79,1.2,4.35,4.35,0,0,1,3-1.14,2.36,2.36,0,0,1,1.76,1.23,1.25,1.25,0,0,1,.16.72c1.77-1.17,2.82-1.62,3.64-1.45a1.53,1.53,0,0,1,1,.73,2.11,2.11,0,0,1,.26,1.48l3.35-1.93a1.21,1.21,0,0,1,.93-.12,1.23,1.23,0,0,1,.75.57c.9,1.57-.93,2.65-3,3.91-1,.59-3.22,1.91-3.62,2.65,1.47-.24,5.79-3.27,9.73-6.85a1.24,1.24,0,0,1,1-.31,1.26,1.26,0,0,1,.88.6,2.39,2.39,0,0,1-.08,2.37,1.83,1.83,0,0,1,.25.35,2.36,2.36,0,0,1-.17,2.32,1.08,1.08,0,0,1,.18.24,1.22,1.22,0,0,1-.45,1.67l-2.53,1.46a1.22,1.22,0,0,1-1.58-1.81c-1,.69-2,1.31-2.85,1.81a1.22,1.22,0,0,1-1.58-.3l-.07-.09a6.05,6.05,0,0,1-3.39,1,2.09,2.09,0,0,1-1.53-1,2.47,2.47,0,0,1-.36-1.25l-2.93,1.69a1.22,1.22,0,0,1-1.67-.44,2.35,2.35,0,0,1-.32-1.24c-2.33,1.66-3.2,2.08-4,1.91a1.39,1.39,0,0,1-.94-.67,2.66,2.66,0,0,1-.21-.5c-1.23,1.08-2.2,1.62-3.16,1.5a2,2,0,0,1-1.46-1,1.07,1.07,0,0,1-.14-.39c-1.15,1-2.11,1.55-3.05,1.43a2,2,0,0,1-1.5-1,6,6,0,0,1-3.31.93,2,2,0,0,1-1.43-1,1.93,1.93,0,0,1-.29-1l-2.49,1.44a1.24,1.24,0,0,1-1.68-.45,1.59,1.59,0,0,1-.2-1.13l-.53.3c-1,.64-1.87,1.11-2.24,1.3a1.23,1.23,0,0,1-1.65-.49,1.19,1.19,0,0,1-.14-.44c-1.71.91-2.89,1.31-3.53,1.17a1.5,1.5,0,0,1-.83-.47,6.17,6.17,0,0,1-3.47,1,2.48,2.48,0,0,1-1.88-1.24c-.56-1,.27-1.57.93-2a30.38,30.38,0,0,0,5.25-4.36,32.58,32.58,0,0,0-4.74,3.78c-2.71,2.44-4.06,3.61-5.3,3.41a1.58,1.58,0,0,1-1.13-.78,2.66,2.66,0,0,1-.25-2.07l-.87.87-1.35,1.43a1.22,1.22,0,0,1-1.8-1.66c.2-.22.52-.57.94-1l-.12.08c-3.86,2.7-4.61,3.17-5.45,3a1.3,1.3,0,0,1-.85-.63,1.19,1.19,0,0,1,0-1.17l-2.82,1.62a1.23,1.23,0,0,1-1.68-.45,1.34,1.34,0,0,1-.19-1.13l-2.74,1.58a1.21,1.21,0,0,1-1.67-.45.64.64,0,0,1-.08-.14,5.48,5.48,0,0,1-3.55,1.14,2,2,0,0,1-1.42-1,1.42,1.42,0,0,1-.12-.25c-1.69,1-2.88,1.31-3.72,1.15a1.87,1.87,0,0,1-1.3-.9,1.25,1.25,0,0,1,.05-1.54l-3.44,2a1.25,1.25,0,0,1-1.58-.3,5.77,5.77,0,0,1-3.16.84,2.14,2.14,0,0,1-1.1-.53A6.52,6.52,0,0,1,123.57,368.64Zm-7.17-7.57a4.81,4.81,0,0,1-.66,1h0c.65-.5,1.5-1.15,2.11-1.67A5.49,5.49,0,0,0,116.4,361.07ZM109.69,360Zm0,0Zm0,0Zm-.13-.19a1.27,1.27,0,0,1,.13.19A1.27,1.27,0,0,0,109.56,359.83Z" style="fill:#407BFF"></path><path d="M218,152.74c4.92-.22,9.84-.39,14.76-.48s9.84-.21,14.76-.26,9.84-.08,14.76-.05,9.84.16,14.76.27,9.84.25,14.76.29,9.84,0,14.76,0c9.84-.14,19.68-.42,29.51-.53h.89v.91l.13,15.89v1l-1,0c-5.28.05-10.56,0-15.85,0s-10.57-.07-15.85-.17-10.57-.15-15.86-.29-10.56-.28-15.85-.49v-.2q7.94-.31,15.85-.49c5.29-.15,10.57-.23,15.86-.3s10.57-.14,15.85-.17,10.57,0,15.85,0l-1,1,.13-15.89.89.89c-9.83-.1-19.67-.38-29.51-.52-4.92,0-9.84-.1-14.76-.05s-9.84.18-14.76.3-9.84.24-14.76.27-9.84,0-14.76-.06-9.84-.13-14.76-.25-9.84-.27-14.76-.48Z" style="fill:#263238"></path><path d="M241.09,168.83c-5.73.21-11.46.38-17.2.47s-11.46.21-17.19.25c-11.46.1-22.92.13-34.38-.17s-22.92-.46-34.38-.3-22.92.41-34.38.5h-.85v-.85l-.13-15.89v-1h1c6.9-.05,13.81-.1,20.71-.09s13.82,0,20.72.14,13.81.14,20.72.3,13.81.29,20.72.53v.2q-10.37.34-20.72.52c-6.91.17-13.81.21-20.72.31s-13.81.12-20.72.14-13.81,0-20.71-.09l1-1-.14,15.89-.84-.85c11.46.09,22.92.43,34.38.5s22.92-.07,34.38-.31,22.92-.26,34.38-.17c5.73,0,11.46.15,17.19.26s11.47.26,17.2.47Z" style="fill:#263238"></path><path d="M104.06,242a118.59,118.59,0,0,1-.78-15.63c.07-2.61.31-5.22.47-7.82a75.55,75.55,0,0,0,0-7.82c-.13-2.61-.34-5.21-.45-7.82s-.13-5.21-.2-7.82c-.11-5.21.08-10.42.44-15.63l0-.65.56,0c.94.08,1.88.12,2.82.22s1.88.17,2.81.29v.2c-.93.12-1.87.19-2.81.28s-1.88.14-2.82.22l.6-.6c.36,5.21.55,10.42.44,15.63-.07,2.61-.1,5.21-.2,7.82s-.33,5.21-.45,7.82a75.55,75.55,0,0,0,0,7.82c.16,2.6.4,5.21.47,7.82a118.59,118.59,0,0,1-.78,15.63Z" style="fill:#263238"></path><path d="M193.19,253.37c-7.42.64-14.84.8-22.26.79-3.71,0-7.42-.27-11.13-.43s-7.42-.18-11.12-.1-7.42.28-11.13.41-7.42.18-11.13.24c-7.42.15-14.84,0-22.26-.27l-.78,0,0-.72.26-5.63.18-2.82c0-.94.12-1.88.2-2.82h.2c.08.94.14,1.88.2,2.82l.18,2.82.26,5.63-.74-.74c7.42-.27,14.84-.41,22.26-.26,3.71,0,7.42.11,11.13.23s7.42.33,11.13.42,7.41.07,11.12-.11,7.42-.4,11.13-.43c7.42,0,14.84.15,22.26.79Z" style="fill:#263238"></path><path d="M197.7,179.36c2.53-.18,5.07-.27,7.61-.4s5.07-.17,7.6-.23c5.07-.11,10.14-.19,15.22-.16H229v.89c0,3.07-.1,6.15-.21,9.22l-.3,9.23q-.19,9.22.1,18.45l.27,9.23c.06,3.08.15,6.15.17,9.23.07,6.15.17,12.3.14,18.45v1.08h-1.06c-5.83-.05-11.65-.12-17.47-.28l-8.74-.28c-2.91-.11-5.82-.24-8.73-.41v-.2c2.91-.16,5.82-.3,8.73-.4l8.74-.29c5.82-.16,11.64-.23,17.47-.28l-1.07,1.07c0-6.15.07-12.3.14-18.45,0-3.08.11-6.15.17-9.23l.27-9.23q.3-9.23.1-18.45l-.3-9.23c-.1-3.07-.2-6.15-.2-9.22l.89.89c-5.08,0-10.15-.06-15.22-.16-2.53-.07-5.07-.14-7.6-.24s-5.08-.22-7.61-.39Z" style="fill:#263238"></path><path d="M109.79,179.36c3.67-.36,7.33-.57,11-.68s7.33-.17,11-.06,7.33.44,11,.51,7.32,0,11-.22,7.32-.34,11-.39,7.33-.16,11-.13c7.33.08,14.65.33,22,1v.2c-7.33.63-14.65.88-22,1-3.66,0-7.32-.05-11-.12s-7.32-.2-11-.4-7.33-.3-11-.22-7.33.36-11,.51-7.32.05-11-.06-7.32-.32-11-.67Z" style="fill:#263238"></path><path d="M117.72,191.89c-1.37.14-2.85.27-4.39.34a38.15,38.15,0,0,1-4.66,0l-.38,0,0-.33c.07-1.22.19-2.44.2-3.66s0-2.44-.12-3.66v-.26l.29,0c1.5-.1,3-.18,4.51-.2s3-.09,4.5,0l.53,0v.5c0,1.28-.11,2.56-.17,3.8S117.83,190.77,117.72,191.89Zm-.07-.07-.31-3.77c-.06-1.2-.16-2.36-.17-3.52l.51.51c-1.5.05-3,0-4.5,0s-3-.1-4.51-.21l.27-.27c-.08,1.22-.14,2.44-.12,3.66s.13,2.44.21,3.66l-.36-.36a33.22,33.22,0,0,1,4.35,0C114.49,191.55,116,191.67,117.65,191.82Z" style="fill:#263238"></path><path d="M152.62,196.31l17.89-.2L188.4,196l35.78-.08h.44v.44q0,11.83-.11,23.67l-.15,23.66v.19h-.18c-9.62-.06-19.25,0-28.88,0l-28.88.13-28.87.13-28.88.05h-.53v-.53l0-23.66.12-23.67V196h.38l22,.12,22,.21v.1l-22,.21-22,.12.38-.38.12,23.67,0,23.66-.52-.52,28.88.05,28.87.12,28.88.14c9.63,0,19.26.08,28.88,0l-.18.18L223.86,220q-.11-11.84-.11-23.67l.43.44-35.78-.07-17.89-.12-17.89-.2Z" style="fill:#263238"></path><path d="M164.12,220.92c4.88-2.37,9.84-4.51,14.87-6.49,2.53-1,5.09-1.85,7.61-2.84s5-2.08,7.46-3.18C199,206.18,204,204.07,209,202s10.07-4,15.19-5.71l0,.1c-4.88,2.34-9.84,4.5-14.83,6.59s-10,4-15.1,5.91c-2.54,1-5.06,1.92-7.55,3s-4.94,2.21-7.41,3.31c-5,2.11-10,4.07-15.15,5.81Z" style="fill:#263238"></path><path d="M108.65,243.65c4.49-2.21,9.08-4.2,13.73-6,2.34-.89,4.7-1.7,7-2.61s4.61-1.92,6.89-3c4.55-2.07,9.15-4,13.77-5.92s9.31-3.63,14.05-5.23l0,.09c-4.5,2.19-9.08,4.19-13.68,6.13s-9.28,3.72-14,5.44c-2.35.87-4.68,1.76-7,2.74s-4.55,2.06-6.84,3.08c-4.59,2-9.25,3.76-14,5.34Z" style="fill:#263238"></path><polygon points="193.23 98.95 228.67 98.74 264.11 98.65 299.56 98.56 335 98.63 335.37 98.63 335.37 99 335.24 146.33 335.24 146.57 335 146.57 306.39 146.49 277.79 146.54 220.58 146.69 191.97 146.78 163.36 146.8 106.15 146.82 105.66 146.82 105.66 146.33 105.65 122.67 105.73 99 105.73 98.58 106.15 98.58 149.69 98.72 193.23 98.95 193.23 99.05 149.69 99.28 106.15 99.42 106.57 99 106.65 122.67 106.64 146.33 106.15 145.84 163.36 145.87 191.97 145.88 220.58 145.97 277.79 146.13 306.39 146.17 335 146.09 334.76 146.33 334.63 99 335 99.37 299.56 99.44 264.11 99.35 228.67 99.26 193.23 99.05 193.23 98.95" style="fill:#263238"></polygon><path d="M216.05,123.55q14.76-3.57,29.66-6.5c5-1,10-1.83,14.91-2.84s9.91-2.07,14.85-3.18q14.82-3.34,29.69-6.38T335,99l0,.1q-14.77,3.53-29.64,6.61t-29.79,5.91c-5,.94-9.94,1.9-14.89,3s-9.87,2.22-14.81,3.31c-9.9,2.12-19.83,4.07-29.81,5.79Z" style="fill:#263238"></path><path d="M106.14,146.28q13.64-3.33,27.4-6c4.6-.88,9.21-1.67,13.79-2.6s9.16-1.91,13.72-2.94q13.68-3.1,27.43-5.92t27.57-5.23l0,.1q-13.65,3.3-27.39,6.14t-27.52,5.44c-4.6.87-9.19,1.75-13.76,2.75s-9.12,2.07-13.69,3.08c-9.14,2-18.32,3.76-27.55,5.32Z" style="fill:#263238"></path><path d="M257.77,272.28c6.4-.11,12.79-.22,19.19-.27s12.79-.07,19.18-.11h.43v.43c0,3.95,0,7.89,0,11.84s0,7.88-.09,11.83c-.08,7.89-.17,15.78-.18,23.66v.16h-.16c-10.32,0-20.64.09-31,.18s-20.64.15-31,.18h-.51V296l.08-11.83.1-11.84V272h.33l11.78.1,11.78.18v.1l-11.78.18-11.78.1.33-.33.1,11.84.07,11.83v23.66l-.51-.51q15.48,0,31,.18c10.33.09,20.65.19,31,.18l-.16.15c0-7.88-.1-15.77-.18-23.66-.05-3.95-.09-7.89-.09-11.83s0-7.89,0-11.84l.43.43c-6.39,0-12.79,0-19.18-.11s-12.79-.16-19.19-.27Z" style="fill:#263238"></path><path d="M263.92,296.89a83.17,83.17,0,0,1,7.83-6.44c1.38-1,2.81-1.88,4.17-2.87s2.67-2.07,4-3.16c2.57-2.21,5.21-4.31,7.89-6.36s5.46-4,8.34-5.77l.06.08c-2.49,2.3-5.1,4.45-7.75,6.54s-5.41,4-8.21,5.94c-1.39,1-2.77,1.94-4.09,3s-2.57,2.19-3.87,3.27A80.14,80.14,0,0,1,264,297Z" style="fill:#263238"></path><path d="M234.18,319.62a69.62,69.62,0,0,1,7.21-6c1.29-.89,2.61-1.72,3.87-2.64s2.47-1.91,3.65-2.93c2.37-2,4.81-4,7.28-5.89s5.06-3.65,7.73-5.3l.06.08c-2.28,2.15-4.69,4.14-7.14,6.07s-5,3.73-7.59,5.48c-1.29.88-2.57,1.78-3.79,2.75s-2.37,2-3.56,3a69.39,69.39,0,0,1-7.66,5.39Z" style="fill:#263238"></path><path d="M257.77,327.78c6.4-.11,12.79-.22,19.19-.27s12.79-.08,19.18-.11h.43v.43c0,3.94,0,7.89,0,11.83s0,7.89-.09,11.84c-.08,7.88-.17,15.77-.18,23.66v.16h-.16c-10.32,0-20.64.09-31,.18s-20.64.15-31,.17h-.51V351.5l.08-11.84.1-11.83v-.33h.33l11.78.1,11.78.18v.1l-11.78.18-11.78.1.33-.33.1,11.83.07,11.84v23.66l-.51-.51q15.48,0,31,.18c10.33.08,20.65.19,31,.17l-.16.16c0-7.89-.1-15.78-.18-23.66-.05-3.95-.09-7.89-.09-11.84s0-7.89,0-11.83l.43.43c-6.39,0-12.79,0-19.18-.11s-12.79-.16-19.19-.27Z" style="fill:#263238"></path><path d="M263.92,352.39a80.18,80.18,0,0,1,7.83-6.44c1.38-1,2.81-1.88,4.17-2.87s2.67-2.07,4-3.17c2.57-2.2,5.21-4.3,7.89-6.35s5.46-4,8.34-5.77l.06.08c-2.49,2.3-5.1,4.44-7.75,6.53s-5.41,4.05-8.21,6c-1.39.95-2.77,1.94-4.09,3s-2.57,2.2-3.87,3.28a80.14,80.14,0,0,1-8.27,5.86Z" style="fill:#263238"></path><path d="M234.18,375.12a69.62,69.62,0,0,1,7.21-6c1.29-.89,2.61-1.72,3.87-2.64s2.47-1.92,3.65-2.93c2.37-2.05,4.81-4,7.28-5.89s5.06-3.66,7.73-5.3l.06.08c-2.28,2.15-4.69,4.13-7.14,6.07s-5,3.73-7.59,5.47c-1.29.88-2.57,1.79-3.79,2.76s-2.37,2-3.56,3a70.75,70.75,0,0,1-7.66,5.39Z" style="fill:#263238"></path><path d="M104.72,269.56q15.07-.49,30.15-.36c5,.06,10,.23,15.07.24s10.05,0,15.08-.1c10-.18,20.09-.28,30.14-.24s20.1.15,30.15.46v.1q-15.08.46-30.15.47T165,269.89c-5-.08-10.05-.15-15.08-.1s-10.05.17-15.07.24c-10.05.07-20.1,0-30.15-.37Z" style="fill:#263238"></path><path d="M168.4,297.17c4.74-.33,9.48-.43,14.22-.36,2.38.07,4.75.21,7.12.25s4.74,0,7.11-.11c4.75-.19,9.49-.26,14.23-.26s9.49.17,14.23.48v.1c-4.74.32-9.49.44-14.23.49s-9.48-.07-14.23-.26c-2.37-.09-4.74-.14-7.11-.11s-4.74.18-7.12.25c-4.74.07-9.48,0-14.22-.37Z" style="fill:#263238"></path><path d="M104.72,297.17c5.31-.33,10.62-.43,15.92-.36,2.65.07,5.31.21,8,.25s5.31,0,8-.11c5.31-.19,10.61-.26,15.92-.26s10.61.17,15.92.48v.1c-5.31.32-10.62.44-15.92.49s-10.61-.07-15.92-.26c-2.65-.09-5.31-.14-8-.11s-5.31.18-8,.25c-5.3.07-10.61,0-15.92-.37Z" style="fill:#263238"></path><line x1="107.1" y1="278.34" x2="132.8" y2="278.34" style="fill:none;stroke:#263238;stroke-miterlimit:10"></line><line x1="107.1" y1="282.97" x2="156.45" y2="282.97" style="fill:none;stroke:#263238;stroke-miterlimit:10"></line><line x1="107.1" y1="287.6" x2="192.43" y2="287.6" style="fill:none;stroke:#263238;stroke-miterlimit:10"></line><line x1="107.1" y1="292.48" x2="189.86" y2="292.48" style="fill:none;stroke:#263238;stroke-miterlimit:10"></line><path d="M104.72,306.38c10-.34,20.1-.44,30.15-.37,5,.07,10,.23,15.07.24s10.05,0,15.08-.1q15.06-.27,30.14-.24t30.15.47v.1q-15.08.47-30.15.46c-10,0-20.1-.06-30.14-.24-5-.08-10.05-.15-15.08-.1s-10.05.18-15.07.24q-15.08.12-30.15-.36Z" style="fill:#263238"></path><path d="M278.58,250.59a79.12,79.12,0,0,1,10-.36c1.66.07,3.33.21,5,.25s3.32,0,5-.11c3.32-.19,6.64-.26,10-.26s6.65.17,10,.48v.1c-3.32.32-6.65.44-10,.49s-6.65-.07-10-.26c-1.67-.09-3.33-.14-5-.12s-3.33.19-5,.26a79.13,79.13,0,0,1-10-.37Z" style="fill:#263238"></path><path d="M235.61,250.59a95.29,95.29,0,0,1,10.94-.36c1.83.07,3.65.21,5.47.25s3.65,0,5.47-.11c3.65-.19,7.29-.26,10.94-.26s7.29.17,10.94.48v.1c-3.65.32-7.3.44-10.94.49s-7.29-.07-10.94-.26c-1.82-.09-3.65-.14-5.47-.12s-3.64.19-5.47.26a95.31,95.31,0,0,1-10.94-.37Z" style="fill:#263238"></path><line x1="237.25" y1="231.76" x2="254.91" y2="231.76" style="fill:none;stroke:#263238;stroke-miterlimit:10"></line><line x1="237.25" y1="236.39" x2="271.15" y2="236.39" style="fill:none;stroke:#263238;stroke-miterlimit:10"></line><line x1="237.25" y1="241.02" x2="295.88" y2="241.02" style="fill:none;stroke:#263238;stroke-miterlimit:10"></line><line x1="237.25" y1="245.9" x2="294.11" y2="245.9" style="fill:none;stroke:#263238;stroke-miterlimit:10"></line><path d="M235.61,259.8c6.91-.34,13.81-.44,20.72-.37,3.45.06,6.9.23,10.36.24s6.9,0,10.35-.1q10.36-.27,20.72-.24c6.9,0,13.81.16,20.71.47v.1c-6.9.31-13.81.45-20.71.46S284,260.3,277,260.12c-3.45-.08-6.9-.15-10.35-.1s-6.91.18-10.36.24q-10.37.12-20.72-.36Z" style="fill:#263238"></path><path d="M168.4,338.5c4.74-.34,9.48-.44,14.22-.37,2.38.07,4.75.22,7.12.25s4.74,0,7.11-.11c4.75-.19,9.49-.25,14.23-.26s9.49.17,14.23.49v.1c-4.74.31-9.49.43-14.23.48s-9.48-.07-14.23-.26c-2.37-.09-4.74-.14-7.11-.11s-4.74.18-7.12.25c-4.74.07-9.48,0-14.22-.36Z" style="fill:#263238"></path><path d="M104.72,338.5c5.31-.34,10.62-.44,15.92-.37,2.65.07,5.31.22,8,.25s5.31,0,8-.11c5.31-.19,10.61-.25,15.92-.26s10.61.17,15.92.49v.1c-5.31.31-10.62.43-15.92.48s-10.61-.07-15.92-.26c-2.65-.09-5.31-.14-8-.11s-5.31.18-8,.25c-5.3.07-10.61,0-15.92-.36Z" style="fill:#263238"></path><line x1="107.1" y1="319.67" x2="132.8" y2="319.67" style="fill:none;stroke:#263238;stroke-miterlimit:10"></line><line x1="107.1" y1="324.29" x2="156.45" y2="324.29" style="fill:none;stroke:#263238;stroke-miterlimit:10"></line><line x1="107.1" y1="328.92" x2="192.43" y2="328.92" style="fill:none;stroke:#263238;stroke-miterlimit:10"></line><line x1="107.1" y1="333.8" x2="189.86" y2="333.8" style="fill:none;stroke:#263238;stroke-miterlimit:10"></line><path d="M168.4,374c4.74-.34,9.48-.44,14.22-.37,2.38.07,4.75.22,7.12.25s4.74,0,7.11-.11c4.75-.19,9.49-.26,14.23-.26s9.49.17,14.23.49v.1c-4.74.31-9.49.43-14.23.48s-9.48-.07-14.23-.26c-2.37-.09-4.74-.14-7.11-.11s-4.74.18-7.12.25c-4.74.07-9.48,0-14.22-.36Z" style="fill:#263238"></path><path d="M104.72,374c5.31-.34,10.62-.44,15.92-.37,2.65.07,5.31.22,8,.25s5.31,0,8-.11c5.31-.19,10.61-.26,15.92-.26s10.61.17,15.92.49v.1c-5.31.31-10.62.43-15.92.48s-10.61-.07-15.92-.26c-2.65-.09-5.31-.14-8-.11s-5.31.18-8,.25c-5.3.07-10.61,0-15.92-.36Z" style="fill:#263238"></path><line x1="107.1" y1="355.17" x2="132.8" y2="355.17" style="fill:none;stroke:#263238;stroke-miterlimit:10"></line><line x1="107.1" y1="359.79" x2="156.45" y2="359.79" style="fill:none;stroke:#263238;stroke-miterlimit:10"></line><line x1="107.1" y1="364.42" x2="192.43" y2="364.42" style="fill:none;stroke:#263238;stroke-miterlimit:10"></line><line x1="107.1" y1="369.3" x2="189.86" y2="369.3" style="fill:none;stroke:#263238;stroke-miterlimit:10"></line><path d="M274.31,178.33a42.79,42.79,0,0,1,5.6-.68,45.52,45.52,0,0,1,5.6-.05c1.87.12,3.74.45,5.61.5a40.41,40.41,0,0,0,5.6-.22c1.87-.2,3.73-.34,5.6-.4s3.74-.14,5.6-.12a75.75,75.75,0,0,1,11.21,1v.2a77.1,77.1,0,0,1-11.21,1c-1.86,0-3.73,0-5.6-.12s-3.73-.2-5.6-.4a42,42,0,0,0-5.6-.22c-1.87.06-3.74.38-5.61.51a45.52,45.52,0,0,1-5.6-.06,41.12,41.12,0,0,1-5.6-.67Z" style="fill:#263238"></path><path d="M241.6,223.56c-1.48.18-3,.25-4.44.38l-.44,0,0-.52q-.35-5.62-.4-11.25c0-1.88,0-3.76,0-5.63s.18-3.76.28-5.63c.25-3.76.31-7.51.21-11.26s-.36-7.51-.47-11.26l0-.79.84,0c3.1-.12,6.19-.14,9.29-.21s6.19-.05,9.28,0,6.2.15,9.29.3l4.64.25c1.55.12,3.1.21,4.65.37v.2c-1.55.15-3.1.24-4.65.36l-4.64.26q-4.63.21-9.29.3c-3.09.05-6.19.07-9.28,0s-6.19-.08-9.29-.2l.82-.82c-.11,3.75-.38,7.5-.47,11.26s0,7.5.21,11.26c.1,1.87.21,3.75.28,5.63s.07,3.75,0,5.63q-.06,5.63-.4,11.25l-.48-.47c1.48.13,3,.2,4.44.37Z" style="fill:#263238"></path><path d="M315,223.56c-3,.39-6.11.55-9.17.68s-6.11.17-9.17.06-6.11-.44-9.17-.51-6.11.05-9.17.22-6.11.35-9.17.4-6.11.15-9.17.12c-6.11-.08-12.22-.33-18.34-1v-.2c6.12-.63,12.23-.88,18.34-1,3.06,0,6.12,0,9.17.12s6.12.2,9.17.4,6.12.3,9.17.22,6.12-.36,9.17-.51,6.12,0,9.17.06,6.12.29,9.17.67Z" style="fill:#263238"></path><path d="M272,209.19a7.53,7.53,0,0,1-3.92-3.29,12.94,12.94,0,0,1-.92-2.42c-.26-.81-.52-1.62-.71-2.46a9.34,9.34,0,0,1,.29-5.18,8.51,8.51,0,0,1,3.11-4.1l.07.07a16.56,16.56,0,0,0-2.17,4.38,14,14,0,0,0-.59,2.33A19.31,19.31,0,0,0,267,201a6.72,6.72,0,0,0,.47,2.42,9,9,0,0,0,1.32,2.08,26,26,0,0,0,3.27,3.66Z" style="fill:#263238"></path><path d="M288.52,196.77a8,8,0,0,1,.69,3.28,8.44,8.44,0,0,1-.59,3.34,12,12,0,0,1-1.78,2.86,16.52,16.52,0,0,1-2.27,2.46,9.12,9.12,0,0,1-2.88,1.79,13.57,13.57,0,0,1-1.64.52,9.75,9.75,0,0,1-1.71.21,9.44,9.44,0,0,1-6.34-2l.05-.08a13.34,13.34,0,0,0,6.24,1.06,12.08,12.08,0,0,0,5.95-1.9,7.45,7.45,0,0,0,2.33-2.21,9,9,0,0,0,1.26-2.94,16.33,16.33,0,0,0,.6-6.33Z" style="fill:#263238"></path><path d="M269.85,191.74a8.21,8.21,0,0,1,4.91-3.24,13.09,13.09,0,0,1,3-.14,27,27,0,0,1,2.95.28,8.88,8.88,0,0,1,2.84,1,9.35,9.35,0,0,1,2.44,1.8,9.07,9.07,0,0,1,2.54,5.35l-.09,0a14.89,14.89,0,0,0-3.21-4.62,13.2,13.2,0,0,0-4.66-3,7.92,7.92,0,0,0-2.81-.49,10,10,0,0,0-2.77.62,18.82,18.82,0,0,0-5.06,2.51Z" style="fill:#263238"></path><path d="M273.85,203.46a36.85,36.85,0,0,1-.57-4.42c-.06-.74-.11-1.48-.11-2.22s.05-1.49.07-2.23l0-.41.33.16a29.18,29.18,0,0,0,5.06,1.77c1.73.46,3.43,1,5.13,1.6l.93.31-.8.62c-1.06.82-2.17,1.59-3.29,2.33s-2.27,1.47-3.46,2.13l-.06-.08c1-1,2-1.86,3-2.72s2.08-1.72,3.17-2.51l.13.92c-1.66-.64-3.33-1.28-5-2a28.91,28.91,0,0,0-5-1.86l.35-.25c.09.73.2,1.47.27,2.21s.08,1.48.1,2.22a35.09,35.09,0,0,1-.18,4.46Z" style="fill:#263238"></path><path d="M91.44,332.74a76.86,76.86,0,0,1,.37,9.83c-.07,1.64-.22,3.28-.25,4.92s0,3.27.11,4.91c.19,3.28.25,6.56.26,9.84s-.17,6.55-.49,9.83h-.1c-.31-3.28-.43-6.56-.48-9.83s.07-6.56.26-9.84c.09-1.64.14-3.27.11-4.91s-.18-3.28-.25-4.92a78.72,78.72,0,0,1,.36-9.83Z" style="fill:#263238"></path><path d="M91.44,267c.34,5.48.44,11,.37,16.44-.06,2.74-.23,5.47-.24,8.21s0,5.48.1,8.22c.19,5.48.25,11,.26,16.43s-.17,11-.49,16.44h-.1c-.31-5.48-.43-11-.48-16.44s.07-10.95.26-16.43c.08-2.74.15-5.48.1-8.22s-.18-5.47-.24-8.21c-.08-5.48,0-11,.36-16.44Z" style="fill:#263238"></path><path d="M91.44,204.5c.34,5.21.44,10.42.37,15.63-.07,2.6-.22,5.2-.25,7.81s0,5.21.11,7.81c.19,5.21.25,10.42.26,15.63s-.17,10.41-.49,15.62h-.1c-.31-5.21-.43-10.41-.48-15.62s.07-10.42.26-15.63c.09-2.6.14-5.21.11-7.81s-.18-5.21-.25-7.81c-.07-5.21,0-10.42.36-15.63Z" style="fill:#263238"></path><path d="M91.44,97.07c.34,6.19.44,12.39.37,18.59-.06,3.09-.23,6.19-.24,9.29s0,6.2.1,9.29c.19,6.2.25,12.4.26,18.59s-.17,12.39-.49,18.59h-.1c-.31-6.2-.43-12.39-.48-18.59s.07-12.39.26-18.59c.08-3.09.15-6.19.1-9.29s-.18-6.2-.24-9.29q-.12-9.3.36-18.59Z" style="fill:#263238"></path><path d="M84.26,291.77a78.72,78.72,0,0,1,.36,9.83c-.07,1.64-.22,3.28-.25,4.91s0,3.28.11,4.92c.19,3.28.26,6.56.26,9.83s-.17,6.56-.48,9.84h-.1c-.32-3.28-.44-6.56-.49-9.84s.07-6.55.26-9.83c.09-1.64.14-3.28.11-4.92s-.18-3.27-.25-4.91a76.86,76.86,0,0,1,.37-9.83Z" style="fill:#263238"></path><path d="M84.26,226c.33,5.48.44,11,.36,16.43-.06,2.74-.23,5.48-.24,8.22s0,5.48.1,8.22c.19,5.48.26,11,.26,16.43s-.17,11-.48,16.44h-.1c-.32-5.48-.44-11-.49-16.44s.07-10.95.26-16.43c.08-2.74.15-5.48.1-8.22s-.18-5.48-.24-8.22c-.07-5.47,0-11,.37-16.43Z" style="fill:#263238"></path><path d="M84.26,163.53c.33,5.21.43,10.42.36,15.62-.07,2.61-.22,5.21-.25,7.82s0,5.21.11,7.81c.19,5.21.26,10.42.26,15.63s-.17,10.41-.48,15.62h-.1c-.32-5.21-.44-10.42-.49-15.62s.07-10.42.26-15.63c.09-2.6.14-5.21.11-7.81s-.18-5.21-.25-7.82c-.07-5.2,0-10.41.37-15.62Z" style="fill:#263238"></path><line x1="105.3" y1="262.31" x2="227.56" y2="262.31" style="fill:none;stroke:#263238;stroke-miterlimit:10;stroke-width:6px"></line><line x1="105.3" y1="92.16" x2="227.56" y2="92.16" style="fill:none;stroke:#263238;stroke-miterlimit:10;stroke-width:6px"></line><line x1="235.1" y1="323.3" x2="296.01" y2="323.3" style="fill:none;stroke:#263238;stroke-miterlimit:10;stroke-width:6px"></line></g><g id="freepik--Floor--inject-2"><line x1="421.19" y1="412.58" x2="60.51" y2="412.58" style="fill:#fff;stroke:#263238;stroke-linecap:round;stroke-linejoin:round"></line></g></svg>