<?xml version="1.0" standalone="no"?><svg xmlns="http://www.w3.org/2000/svg" viewBox="0 0 1440 320"><path fill="#1363df" fill-opacity="1" d="M0,160L24,176C48,192,96,224,144,234.7C192,245,240,235,288,208C336,181,384,139,432,133.3C480,128,528,160,576,170.7C624,181,672,171,720,149.3C768,128,816,96,864,106.7C912,117,960,171,1008,181.3C1056,192,1104,160,1152,138.7C1200,117,1248,107,1296,122.7C1344,139,1392,181,1416,202.7L1440,224L1440,0L1416,0C1392,0,1344,0,1296,0C1248,0,1200,0,1152,0C1104,0,1056,0,1008,0C960,0,912,0,864,0C816,0,768,0,720,0C672,0,624,0,576,0C528,0,480,0,432,0C384,0,336,0,288,0C240,0,192,0,144,0C96,0,48,0,24,0L0,0Z"></path></svg>